<?xml version="1.0" encoding="UTF-8" standalone="no"?>
<!-- Created with Inkscape (http://www.inkscape.org/) -->

<svg
   xmlns:dc="http://purl.org/dc/elements/1.1/"
   xmlns:cc="http://creativecommons.org/ns#"
   xmlns:rdf="http://www.w3.org/1999/02/22-rdf-syntax-ns#"
   xmlns:svg="http://www.w3.org/2000/svg"
   xmlns="http://www.w3.org/2000/svg"
   xmlns:sodipodi="http://sodipodi.sourceforge.net/DTD/sodipodi-0.dtd"
   xmlns:inkscape="http://www.inkscape.org/namespaces/inkscape"
   width="182.80852mm"
   height="255.20654mm"
   viewBox="0 0 182.80852 255.20654"
   version="1.1"
   id="svg8"
   inkscape:version="0.92.3 (2405546, 2018-03-11)"
   sodipodi:docname="niespiet.svg">
  <defs
     id="defs2" />
  <sodipodi:namedview
     id="base"
     pagecolor="#ffffff"
     bordercolor="#666666"
     borderopacity="1.0"
     inkscape:pageopacity="0.0"
     inkscape:pageshadow="2"
     inkscape:zoom="0.7"
     inkscape:cx="474.56769"
     inkscape:cy="540.00675"
     inkscape:document-units="mm"
     inkscape:current-layer="layer2"
     showgrid="false"
     fit-margin-top="0"
     fit-margin-left="0"
     fit-margin-right="0"
     fit-margin-bottom="0"
     inkscape:window-width="1920"
     inkscape:window-height="1053"
     inkscape:window-x="0"
     inkscape:window-y="27"
     inkscape:window-maximized="1" />
  <metadata
     id="metadata5">
    <rdf:RDF>
      <cc:Work
         rdf:about="">
        <dc:format>image/svg+xml</dc:format>
        <dc:type
           rdf:resource="http://purl.org/dc/dcmitype/StillImage" />
        <dc:title></dc:title>
      </cc:Work>
    </rdf:RDF>
  </metadata>
  <g
     inkscape:label="Layer 1"
     inkscape:groupmode="layer"
     id="layer1"
     transform="translate(-25.465916,-41.963453)">
    <path
       style="fill:#000000;stroke-width:0.37051514"
       d="m 103.34206,297.17 c -0.2918,0 -0.87067,-0.34012 -1.28637,-0.75582 -0.41571,-0.41572 -0.9159,-1.17686 -1.11155,-1.69144 -0.19564,-0.51458 -0.35572,-1.17486 -0.35572,-1.46727 0,-0.29241 0.21462,-0.53165 0.47693,-0.53165 0.26231,0 0.50119,0.32222 0.53086,0.71605 0.0297,0.39383 0.33442,1.14412 0.67723,1.66731 0.34282,0.52321 0.75168,0.95127 0.90859,0.95127 0.15691,0 0.53957,-0.38808 0.85036,-0.8624 0.31079,-0.47433 0.82461,-1.93323 1.14183,-3.24202 0.31721,-1.30877 0.84764,-3.79681 1.17871,-5.52897 0.33108,-1.73215 0.69309,-5.52531 0.80445,-8.42922 0.15982,-4.16717 0.31118,-5.27984 0.71825,-5.27984 0.42337,0 0.48034,0.81309 0.31801,4.53882 -0.10877,2.49634 -0.37126,5.70593 -0.5833,7.13242 -0.21205,1.42647 -0.63566,3.76072 -0.94137,5.1872 -0.30571,1.42649 -0.73395,3.26054 -0.95167,4.07567 -0.21771,0.81513 -0.72183,1.94056 -1.12027,2.50098 -0.39844,0.5604 -0.96318,1.01891 -1.25497,1.01891 z m -19.545913,-2.97538 c -0.240171,-0.006 -0.715953,-0.17422 -1.057287,-0.37339 -0.341336,-0.19914 -0.817845,-0.95973 -1.058909,-1.69015 -0.274411,-0.83148 -0.307707,-1.45865 -0.08905,-1.67732 0.218664,-0.21865 0.568826,0.20972 0.936474,1.14566 0.32297,0.8222 0.830502,1.49491 1.127844,1.49491 0.297345,0 0.719248,-0.45851 0.937562,-1.01891 0.218312,-0.5604 0.662575,-1.93595 0.987245,-3.05675 0.397504,-1.37224 0.652207,-4.21617 0.779813,-8.70711 0.136956,-4.8201 0.312295,-6.66927 0.632394,-6.66927 0.30415,0 0.442896,0.87054 0.442896,2.77886 0,1.52838 -0.12749,4.69629 -0.283311,7.0398 -0.155824,2.3435 -0.434918,4.84447 -0.620209,5.55772 -0.185295,0.71324 -0.5226,1.91643 -0.749571,2.67373 -0.226966,0.75731 -0.668394,1.63265 -0.980946,1.9452 -0.312548,0.31255 -0.764776,0.56321 -1.004952,0.55702 z m -5.109807,-8.14007 c -0.400822,0 -1.022322,-0.5132 -1.426613,-1.178 -0.394009,-0.64789 -0.631817,-1.31482 -0.528461,-1.48207 0.103361,-0.16723 0.348939,-0.30406 0.545741,-0.30406 0.1968,0 0.516299,0.41684 0.709993,0.92629 0.193694,0.50946 0.499355,0.92629 0.679239,0.92629 0.179889,0 0.530971,-1.4921 0.780191,-3.31577 0.249216,-1.82368 0.407289,-5.02249 0.351267,-7.10846 -0.07219,-2.68794 0.02701,-3.83565 0.340528,-3.94016 0.243311,-0.0811 0.462074,-0.008 0.486142,0.16131 0.02409,0.16983 0.106204,1.72599 0.182527,3.45814 0.07632,1.73216 -0.02731,4.5851 -0.230327,6.33985 -0.203001,1.75476 -0.551545,3.71385 -0.774543,4.35356 -0.264329,0.75824 -0.652666,1.16308 -1.115684,1.16308 z m 21.91903,-4.44618 c -0.38777,0 -0.967056,-0.26201 -1.287285,-0.58224 -0.320233,-0.32023 -0.582238,-0.80679 -0.582238,-1.08124 0,-0.27446 -0.101205,-0.76274 -0.224898,-1.08508 -0.14273,-0.37195 -0.02427,-0.58608 0.3242,-0.58608 0.3137,0 0.644403,0.47652 0.771409,1.11154 0.132251,0.66126 0.454922,1.11155 0.796512,1.11155 0.31581,0 0.73799,-0.43078 0.93818,-0.95731 0.20018,-0.52651 0.63102,-2.13143 0.95741,-3.56649 0.40969,-1.80127 0.54939,-3.7994 0.45116,-6.453 -0.0782,-2.11409 -0.0229,-3.8438 0.1231,-3.8438 0.14595,0 0.37272,0.17369 0.50392,0.38597 0.1312,0.21228 0.23913,2.08801 0.23984,4.16829 7.4e-4,2.24306 -0.25658,4.91322 -0.63235,6.56119 -0.3485,1.52837 -0.8677,3.23737 -1.15377,3.79778 -0.29217,0.57235 -0.82915,1.01892 -1.22519,1.01892 z M 83.729985,257.36405 c -1.972749,0.13919 -2.859687,0.0374 -3.705152,-0.42542 -0.611349,-0.33465 -1.897768,-1.36978 -2.858701,-2.3003 -1.402864,-1.35844 -1.796566,-2.02131 -1.997885,-3.3638 -0.169945,-1.13327 -0.0587,-2.2759 0.345254,-3.54642 0.327787,-1.03095 0.761679,-3.54178 0.964202,-5.5796 0.20252,-2.03783 0.357988,-7.62336 0.345483,-12.41227 -0.01605,-6.13505 -0.217341,-10.16231 -0.681511,-13.63342 -0.362322,-2.70948 -0.764298,-5.03184 -0.893277,-5.16083 -0.128989,-0.12897 -1.126138,0.0465 -2.215904,0.39007 -1.089763,0.34353 -2.713378,1.13545 -3.608024,1.75987 -0.89465,0.62439 -3.002602,2.04172 -4.684342,3.14962 -2.283929,1.50458 -3.784114,2.19156 -5.928241,2.71469 -1.578795,0.38521 -4.082437,0.88414 -5.563647,1.10876 -1.481212,0.2246 -3.34881,0.40837 -4.150219,0.40837 -0.801409,0 -2.340583,-0.23988 -3.420387,-0.53308 -1.079806,-0.29318 -2.508244,-0.69926 -3.174308,-0.90238 -0.666064,-0.20313 -2.356675,-1.13094 -3.756911,-2.06181 -1.400236,-0.93089 -3.467733,-2.56728 -4.594437,-3.63643 -1.126705,-1.06916 -2.973634,-3.33674 -4.104289,-5.03909 -1.130655,-1.70233 -2.410865,-4.03659 -2.844911,-5.18722 -0.479537,-1.27121 -1.011278,-4.15319 -1.35525,-7.34531 -0.513919,-4.76926 -0.511672,-5.49418 0.02438,-7.86794 0.408942,-1.81083 1.09822,-3.38518 2.242127,-5.12113 0.908416,-1.37858 2.581789,-3.53407 3.71861,-4.79001 1.136821,-1.25594 3.209892,-3.03651 4.606828,-3.95681 1.396936,-0.92031 3.271791,-1.99573 4.166346,-2.38982 0.894555,-0.39408 2.293391,-0.98618 3.108525,-1.31577 0.815133,-0.32958 2.815914,-0.95755 4.446181,-1.39549 2.417755,-0.64949 3.886113,-0.78564 7.966076,-0.73864 2.751074,0.0316 6.08571,0.22622 7.410301,0.43227 1.324592,0.20606 3.158642,0.63617 4.075667,0.95582 0.917025,0.31965 2.033377,0.75358 2.48078,0.9643 0.611599,0.28804 1.131194,0.23235 2.09383,-0.22445 0.704201,-0.33417 1.620474,-0.60758 2.036162,-0.60758 0.415689,0 0.863333,-0.174 0.994767,-0.38666 0.131438,-0.21266 2.235785,-1.71564 4.676338,-3.33996 2.44055,-1.62432 5.336907,-3.61783 6.436348,-4.43003 1.09944,-0.8122 2.158939,-1.47674 2.354441,-1.47674 0.195503,0 0.411035,-0.13891 0.478965,-0.30864 0.06793,-0.16974 1.874188,-1.23616 4.013913,-2.36983 2.139724,-1.13366 4.974165,-2.4015 6.298756,-2.81743 1.324591,-0.41592 2.855301,-0.85036 3.401581,-0.96541 0.64786,-0.1364 1.03436,-0.48699 1.11154,-1.00813 0.0705,-0.47593 0.65907,-1.07868 1.4558,-1.49082 0.73561,-0.38052 2.33707,-0.86794 3.5588,-1.08313 l 2.22133,-0.39128 -0.51969,-1.50841 c -0.35456,-1.02913 -0.39914,-1.62896 -0.1403,-1.8878 0.25885,-0.25885 0.5882,-0.19595 1.03655,0.19791 0.36144,0.31751 1.03882,0.69368 1.5053,0.83594 0.74357,0.22676 0.82468,0.15222 0.65783,-0.60458 -0.10466,-0.47477 -0.2661,-1.6552 -0.35874,-2.62316 -0.1299,-1.35719 -0.0473,-1.75995 0.36108,-1.75995 0.38675,0 0.52952,0.48795 0.52952,1.80966 0,1.37626 0.36154,2.53201 1.50954,4.82564 1.01614,2.03018 2.25747,3.7711 3.79778,5.32627 1.25853,1.27067 3.04476,2.75348 3.96939,3.29513 0.92462,0.54165 2.75867,1.26679 4.07566,1.6114 1.80151,0.47139 3.03685,0.55964 4.98813,0.35631 1.42649,-0.14864 3.05411,-0.2918 3.61697,-0.31813 0.60924,-0.0284 1.10453,-0.30364 1.22396,-0.67998 0.11035,-0.34767 0.7047,-1.05628 1.32079,-1.57469 0.91269,-0.76797 1.51054,-0.94256 3.22769,-0.94256 1.37133,0 2.57179,0.24883 3.43654,0.71232 l 1.32903,0.71231 0.64375,-1.36072 c 0.35407,-0.7484 1.27616,-2.19436 2.04908,-3.21329 0.77292,-1.01891 1.69111,-2.41718 2.04041,-3.10727 0.34931,-0.69009 0.94843,-2.19067 1.33139,-3.33463 0.38295,-1.14397 0.70037,-2.7777 0.70538,-3.63051 0.006,-0.85281 -0.14564,-1.95757 -0.33476,-2.45502 -0.24226,-0.63718 -0.70296,-0.95714 -1.55909,-1.0828 -1.07334,-0.15752 -1.43334,0.0426 -3.08339,1.71399 -1.22866,1.24455 -2.10289,2.55823 -2.55379,3.83754 -0.37709,1.06987 -0.85368,1.94521 -1.05909,1.94521 -0.22007,0 -0.27239,-0.41851 -0.12743,-1.01892 l 0.24608,-1.01891 -0.59696,0.83298 c -0.32835,0.45813 -0.90814,1.54189 -1.28846,2.40835 -0.38032,0.86645 -0.80944,2.9509 -0.95359,4.6321 -0.14417,1.68122 -0.40731,3.05676 -0.5848,3.05676 -0.17747,0 -0.32068,-0.95871 -0.31826,-2.13047 0.003,-1.17174 0.22654,-2.96411 0.49804,-3.98303 0.27152,-1.01891 0.7916,-2.42844 1.15574,-3.1323 0.36414,-0.70384 1.23059,-1.87096 1.92547,-2.5936 0.69487,-0.72263 1.83407,-2.06189 2.53157,-2.97614 0.81359,-1.0664 1.14018,-1.79024 0.91111,-2.01931 -0.19639,-0.19637 -0.35706,-0.71805 -0.35706,-1.15927 0,-0.44121 0.34923,-1.24618 0.77605,-1.78881 0.42683,-0.54263 1.4485,-1.32965 2.27037,-1.74893 0.82187,-0.41929 2.34839,-0.84605 3.39224,-0.94838 1.56867,-0.15374 2.21372,-0.016 3.71826,0.79436 1.00118,0.53923 2.88087,1.9115 4.17708,3.04951 1.29621,1.13801 2.46012,1.96576 2.58645,1.83943 0.12631,-0.12631 0.63781,-1.19223 1.13662,-2.36869 0.49884,-1.17644 1.23152,-2.94945 1.6282,-3.94 0.39668,-0.99055 0.96633,-3.0747 1.26587,-4.63144 0.29954,-1.55673 0.554,-4.61957 0.56547,-6.8063 0.0112,-2.18673 0.18366,-4.07649 0.38264,-4.19947 0.19899,-0.12296 0.25787,-0.55105 0.13079,-0.95123 -0.12701,-0.4002 -0.03,-0.96973 0.21555,-1.26563 0.24556,-0.29589 0.59345,-0.538 0.77307,-0.538 0.17958,0 0.28422,0.54189 0.2325,1.20418 -0.0781,0.99998 0.0316,1.19696 0.647,1.16164 0.40756,-0.0234 1.0745,-0.1624 1.48206,-0.30891 0.64294,-0.2311 0.62524,-0.16416 -0.13359,0.50569 -0.4811,0.42462 -1.15636,0.77204 -1.5006,0.77204 -0.34423,0 -0.78428,-0.15639 -0.97788,-0.34756 -0.22204,-0.21926 -0.37648,1.38805 -0.41832,4.35355 -0.045,3.18754 -0.29839,5.65949 -0.78707,7.67779 -0.39639,1.63716 -1.33914,4.4716 -2.09497,6.29875 -0.75582,1.82716 -1.52471,3.60782 -1.70863,3.95703 -0.25714,0.48827 0.37045,1.68644 2.71708,5.1872 1.67832,2.50375 4.13523,5.63604 5.45982,6.96063 1.32458,1.3246 3.32536,2.87396 4.44618,3.44303 1.12081,0.56906 3.24063,2.03623 4.71072,3.26037 2.10945,1.75653 2.72413,2.49884 2.91597,3.52142 0.13374,0.71263 0.1385,1.40026 0.0112,1.52806 -0.12785,0.12785 -1.00067,-0.15137 -1.93972,-0.62036 -1.40962,-0.70399 -2.10788,-0.82054 -4.00406,-0.66835 -1.6329,0.13107 -2.75718,0.47506 -3.89001,1.19019 -0.87632,0.55319 -2.28291,1.63376 -3.12573,2.40123 -0.84284,0.76749 -2.26605,1.92051 -3.16271,2.56228 -0.89664,0.64177 -2.06661,1.16686 -2.59989,1.16686 -0.8666,0 -0.97363,0.14757 -1.0078,1.38943 -0.021,0.76418 -0.30449,2.13973 -0.62989,3.05675 -0.32541,0.91702 -0.85556,2.40239 -1.17811,3.30081 -0.32256,0.89843 -0.73484,1.91077 -0.9162,2.24965 -0.18137,0.33887 -0.83992,2.58095 -1.46343,4.98238 -0.62352,2.40144 -1.62437,5.39066 -2.2241,6.64272 -0.59973,1.25206 -1.91039,3.16084 -2.91259,4.24173 -1.61861,1.74569 -1.94179,1.93741 -2.89282,1.71611 -0.58884,-0.13695 -1.78238,-0.65509 -2.65228,-1.15127 -0.8699,-0.49618 -2.24188,-1.73743 -3.04885,-2.75831 -0.80696,-1.02089 -1.62495,-2.47093 -1.81772,-3.22232 -0.19278,-0.75138 -0.61506,-3.00055 -0.9384,-4.99815 -0.32335,-1.99759 -0.85527,-4.04006 -1.18206,-4.53882 -0.32682,-0.49874 -0.71107,-0.90681 -0.85392,-0.90681 -0.14284,0 -0.64595,0.95871 -1.11801,2.13046 -0.47207,1.17176 -1.3996,3.31104 -2.06117,4.75396 -0.66158,1.44291 -1.90868,3.36033 -2.77135,4.26092 -0.86268,0.90059 -2.16787,2.38773 -2.90042,3.30475 -0.73258,0.91702 -1.87179,2.20017 -2.53161,2.85141 -0.65982,0.65126 -1.70078,1.44324 -2.31324,1.75995 -0.67398,0.34854 -2.06988,0.57586 -3.53609,0.57586 -1.7603,0 -2.63766,-0.17725 -3.20959,-0.6484 -0.43289,-0.35663 -1.52218,-2.14435 -2.42064,-3.97272 -0.89846,-1.82836 -1.54848,-3.54602 -1.44449,-3.81702 0.10399,-0.271 0.0389,-0.39989 -0.14467,-0.28644 -0.18356,0.11343 -0.85471,-0.45151 -1.49144,-1.25547 -0.83099,-1.0492 -1.30879,-2.226 -1.6931,-4.17005 -0.29447,-1.48959 -0.74685,-3.29523 -1.00529,-4.01253 -0.25844,-0.71731 -1.55365,-2.88484 -2.87824,-4.81671 l -2.40835,-3.51249 0.003,-3.51989 c 0.003,-2.57616 0.16797,-3.81792 0.61696,-4.63144 0.33741,-0.61136 0.95723,-1.47559 1.37738,-1.92053 l 0.76391,-0.80898 -1.26772,0.20573 c -0.69724,0.11315 -2.02724,0.0919 -2.95556,-0.0473 -0.92831,-0.1392 -1.68784,-0.40534 -1.68784,-0.59141 0,-0.18606 0.48685,-0.59006 1.08188,-0.89776 0.69519,-0.35949 1.42357,-1.28172 2.03783,-2.58017 0.52578,-1.11139 0.95596,-2.12564 0.95596,-2.25389 0,-0.12827 -0.32527,-0.12995 -0.72282,-0.004 -0.39754,0.12617 -1.43962,0.0385 -2.31572,-0.19476 -0.8761,-0.23329 -1.843,-0.64578 -2.14868,-0.91664 -0.46251,-0.40983 -0.86665,-0.40717 -2.40834,0.0158 -1.01892,0.2796 -2.61784,0.75081 -3.553154,1.04713 -0.935322,0.29632 -3.269567,1.31941 -5.187213,2.27354 -1.917649,0.95415 -4.903856,2.7199 -6.636014,3.92394 -1.732158,1.20403 -5.022607,3.4423 -7.312109,4.97393 -3.324392,2.22394 -4.324256,3.10112 -4.964777,4.35561 -0.623039,1.22025 -0.810342,2.27374 -0.839224,4.72022 -0.02046,1.73216 0.08419,3.86672 0.232524,4.74345 0.148336,0.87674 0.551323,2.2106 0.895528,2.96412 0.344201,0.75353 1.181543,2.16242 1.86076,3.13086 0.679214,0.96844 1.234935,1.92715 1.234935,2.13045 0,0.20332 0.125053,0.36768 0.277886,0.36526 0.152838,-0.003 1.194911,-0.25289 2.31572,-0.55662 1.120808,-0.30372 3.455383,-0.57841 5.187941,-0.61043 1.732561,-0.0321 3.769569,0.14622 4.526687,0.39609 0.757114,0.24987 1.792289,0.94836 2.300383,1.5522 0.918216,1.09124 0.932221,1.09438 2.311704,0.51799 0.786678,-0.3287 3.080152,-0.67423 5.294443,-0.79766 2.96779,-0.16544 4.21818,-0.0889 5.20335,0.31862 1.20554,0.49863 1.49237,0.46702 4.07567,-0.44909 1.52838,-0.542 3.31246,-1.26306 3.96464,-1.60236 0.65218,-0.3393 1.36079,-0.61691 1.57469,-0.61691 0.2139,0 0.38891,0.1589 0.38891,0.35314 0,0.19421 -0.54188,0.59903 -1.20417,0.89958 -0.6623,0.30056 -2.32785,0.94028 -3.70123,1.42162 l -2.49705,0.87516 1.23295,1.16294 c 0.85012,0.80186 1.48235,1.95318 2.03619,3.70804 0.7497,2.37544 0.76686,2.66761 0.25738,4.38322 -0.31218,1.05123 -1.31095,2.78847 -2.33299,4.05799 -0.98291,1.22091 -2.64364,2.8034 -3.69051,3.51664 -1.78404,1.21548 -1.93885,1.44782 -2.46886,3.70515 -0.31101,1.32459 -0.64454,3.82557 -0.74117,5.55772 -0.0966,1.73217 -0.25662,3.49922 -0.35554,3.92679 -0.0989,0.42757 -0.29104,1.6533 -0.42695,2.72383 -0.1359,1.07053 -0.33871,3.80525 -0.45069,6.07713 -0.11197,2.27188 -0.21918,4.84079 -0.23824,5.70868 -0.0198,0.90166 -0.1977,1.52327 -0.41507,1.45031 -0.24529,-0.0823 -0.33484,-2.09067 -0.25211,-5.65366 0.0706,-3.03929 0.35735,-6.75057 0.63727,-8.2473 0.27992,-1.49673 0.68968,-4.82016 0.91059,-7.38539 0.2209,-2.56525 0.47208,-4.77806 0.55817,-4.91735 0.0861,-0.13934 -0.17008,-0.54884 -0.56925,-0.91009 -0.59328,-0.5369 -1.38655,-0.65416 -4.344819,-0.6422 -1.990467,0.008 -4.035863,0.0643 -4.545321,0.12492 -0.509458,0.0606 -1.14037,0.36899 -1.402033,0.6853 -0.261658,0.31628 -0.728284,0.93334 -1.036946,1.37123 -0.466266,0.66146 -0.591635,2.97955 -0.741081,13.70318 -0.105196,7.54767 -0.328473,13.05563 -0.537744,13.2649 -0.230137,0.23014 -0.379815,-0.69342 -0.419375,-2.58773 -0.03383,-1.62008 -0.04099,-3.52915 -0.01594,-4.2424 0.02508,-0.71324 0.17781,-5.16061 0.339399,-9.88306 l 0.293804,-8.58627 -1.482061,-0.49135 c -0.859428,-0.28493 -2.964854,-0.47516 -5.011588,-0.45278 -2.680673,0.0293 -3.939123,0.21976 -5.232626,0.79194 -1.685646,0.74564 -1.701883,0.76993 -1.58411,2.36977 0.06545,0.88902 0.23741,2.28333 0.382146,3.09846 0.14473,0.81514 0.278352,6.73412 0.296937,13.15329 0.0186,6.41918 -0.10654,12.38353 -0.278053,13.25413 l -0.311841,1.58289 2.885258,-2.07008 c 1.586894,-1.13853 4.259945,-2.72618 5.940117,-3.5281 1.680175,-0.80191 3.370469,-1.45802 3.756215,-1.45802 0.385748,0 0.817338,-0.11596 0.959094,-0.25773 0.141751,-0.14176 0.544686,-0.30947 0.895409,-0.37271 0.350722,-0.0633 1.388194,-0.14146 2.305493,-0.17387 0.917299,-0.0325 2.253754,0.21912 2.969905,0.55896 0.717499,0.34047 1.713047,1.28281 2.217433,2.09893 0.503436,0.81459 1.042714,1.48105 1.198391,1.48105 0.155677,0 0.283047,-0.15309 0.283047,-0.3402 0,-0.18712 0.11169,-0.63131 0.24822,-0.98707 0.16923,-0.44102 0.11028,-0.56161 -0.18526,-0.37896 -0.24837,0.15351 -0.433476,0.0564 -0.433476,-0.22729 0,-0.27236 0.259556,-0.86577 0.576776,-1.31866 0.31724,-0.45292 0.4071,-0.82348 0.1997,-0.82348 -0.2074,0 -0.699457,0.34601 -1.093452,0.76892 -0.393997,0.42291 -0.812183,0.61388 -0.929303,0.42437 -0.117127,-0.1895 0.157065,-0.68335 0.609297,-1.09746 0.452232,-0.4141 1.758578,-1.19016 2.902988,-1.72457 1.14441,-0.5344 3.03977,-1.14894 4.2119,-1.36561 1.17213,-0.21668 2.78314,-0.30277 3.58002,-0.19131 0.79689,0.11147 1.85683,0.49869 2.35544,0.8605 0.4986,0.36182 1.00534,0.94962 1.12609,1.30624 0.12074,0.35662 0.33909,0.6484 0.4852,0.6484 0.14611,0 0.5741,0.52216 0.95109,1.16033 0.46434,0.78608 0.69846,1.95127 0.72585,3.61253 0.0304,1.84425 -0.14268,2.75675 -0.69817,3.68067 -0.40622,0.67566 -1.626,1.89899 -2.71061,2.71848 -1.08461,0.8195 -2.91866,1.91359 -4.07567,2.43132 -1.58513,0.70929 -2.9535,0.98803 -5.55155,1.13085 -2.42066,0.13304 -3.712772,0.0478 -4.336933,-0.28623 -0.813007,-0.43511 -0.84293,-0.54164 -0.349882,-1.24556 0.296539,-0.42336 0.539159,-0.8662 0.539159,-0.98409 0,-0.11791 -0.826738,0.56187 -1.8372,1.51053 -1.010457,0.94868 -2.969556,2.3195 -4.353552,3.0463 -1.383992,0.72679 -3.266647,1.59074 -4.183672,1.91988 -0.917024,0.32914 -2.83444,0.68079 -4.260923,0.78146 z m -1.852576,-0.58714 c 0.203783,0.003 0.389015,-0.53624 0.411624,-1.19807 0.0377,-1.10337 0.0099,-1.13408 -0.334508,-0.36967 -0.206589,0.45851 -0.504958,0.83365 -0.663044,0.83365 -0.158086,0 -0.537526,-0.25009 -0.843201,-0.55576 -0.305674,-0.30569 -0.817782,-0.55578 -1.138011,-0.55578 -0.320233,0 -0.601983,-0.29178 -0.626115,-0.6484 -0.02413,-0.35662 -0.01218,-0.81513 0.02645,-1.01891 0.03869,-0.2038 -0.146235,-0.15752 -0.410942,0.10278 -0.35492,0.34907 -0.376862,0.64091 -0.08356,1.11155 0.218741,0.35102 1.048654,1.01061 1.844247,1.46577 0.795596,0.45516 1.613266,0.82993 1.81705,0.83281 z m 7.927341,-2.21614 c 0.170089,-0.30568 0.408263,-1.05598 0.529285,-1.66733 l 0.22003,-1.11154 -0.523834,1.11154 c -0.288113,0.61135 -0.526291,1.36165 -0.529285,1.66733 -0.0049,0.49401 0.0289,0.49401 0.303804,0 z m 2.136695,-1.01893 c 0.102787,-0.25473 0.102787,-0.67155 0,-0.92629 -0.102788,-0.25473 -0.186884,-0.0463 -0.186884,0.46315 0,0.50947 0.08409,0.71787 0.186884,0.46314 z m 8.924865,-1.20984 c 0.15284,-0.003 0.52798,-0.1673 0.83366,-0.36485 0.44942,-0.29044 0.39624,-0.36024 -0.27789,-0.36484 -0.45851,-0.003 -0.83366,0.16106 -0.83366,0.36484 0,0.20378 0.12506,0.36796 0.27789,0.36485 z m -1.389432,-0.36485 c 0.407565,0 0.741032,-0.0639 0.741032,-0.14204 0,-0.0781 -0.333467,-0.22924 -0.741032,-0.33582 -0.407567,-0.10657 -0.741031,-0.0427 -0.741031,0.14204 0,0.18471 0.333464,0.33582 0.741031,0.33582 z m 4.480872,0 c 0.1847,0 0.33582,-0.33346 0.33582,-0.74102 0,-0.40756 -0.0639,-0.74103 -0.14204,-0.74103 -0.0781,0 -0.22925,0.33347 -0.33583,0.74103 -0.10658,0.40756 -0.0427,0.74102 0.14205,0.74102 z m -13.149381,-0.47086 c 0.12312,-0.12309 0.136284,-0.44269 0.02924,-0.71016 -0.118275,-0.29556 -0.206071,-0.20777 -0.223849,0.22387 -0.01608,0.39057 0.07147,0.60941 0.194601,0.48629 z m 14.760141,0.10041 c 0.29365,0 0.62734,-0.15119 0.74154,-0.33597 0.1142,-0.18478 -0.12606,-0.24869 -0.5339,-0.14204 -0.40785,0.10671 -0.74155,0.25784 -0.74155,0.33597 0,0.0781 0.24026,0.14204 0.53391,0.14204 z m -21.878167,-0.37051 c 0.08009,0 0.244911,-0.25876 0.366273,-0.57502 0.126524,-0.32974 0.06442,-0.47846 -0.145616,-0.34865 -0.201449,0.12449 -0.366273,0.38326 -0.366273,0.57502 0,0.19175 0.06552,0.34865 0.145616,0.34865 z m 24.842287,-0.74104 c 0.0899,0 0.26644,-0.16673 0.39238,-0.37051 0.12595,-0.20378 0.0524,-0.37052 -0.16339,-0.37052 -0.21581,0 -0.39238,0.16674 -0.39238,0.37052 0,0.20378 0.0735,0.37051 0.16339,0.37051 z m -6.97932,-2.69395 c 0.12312,-0.12309 0.13628,-0.44269 0.0292,-0.71016 -0.11828,-0.29557 -0.20608,-0.20777 -0.22385,0.22385 -0.0161,0.39059 0.0715,0.60943 0.1946,0.48631 z m 11.26211,-0.0849 c 0.20378,-0.1259 0.3588,-0.67767 0.34447,-1.22606 -0.0232,-0.89027 -0.0602,-0.91769 -0.34447,-0.25601 -0.17514,0.40756 -0.33015,0.95928 -0.34447,1.22604 -0.0143,0.26675 0.14069,0.38196 0.34447,0.25603 z m -14.01716,-2.32262 c 0.215306,-0.21531 0.318565,-0.61017 0.229464,-0.87747 -0.09249,-0.2775 -0.26045,-0.10951 -0.391467,0.39146 -0.161163,0.6163 -0.11294,0.76096 0.162003,0.48601 z m 1.3861,-0.0858 c 0.17293,-0.30568 0.42886,-0.92986 0.56873,-1.3871 0.20114,-0.65754 0.13306,-0.7848 -0.3257,-0.60875 -0.36001,0.13821 -0.575725,0.66425 -0.56873,1.38709 0.008,0.83097 0.101331,1.00534 0.3257,0.60876 z m -17.936436,-1.70134 c 0.509458,-0.33381 0.926288,-0.66755 0.926288,-0.74164 0,-0.0741 -0.41683,0.0552 -0.926288,0.28734 -0.509459,0.23214 -0.926288,0.56587 -0.926288,0.74164 0,0.17577 0.416829,0.0465 0.926288,-0.28734 z m 15.674438,-0.52175 c 0.377122,-0.71324 0.612247,-1.43638 0.5225,-1.60697 -0.08974,-0.17059 -0.293518,-0.17059 -0.452828,0 -0.159314,0.17059 -0.394439,0.89373 -0.522504,1.60697 l -0.232839,1.29681 z m -6.596818,-1.11155 c 0.390483,-0.71323 0.713298,-1.54689 0.717362,-1.85256 0.0041,-0.30568 -0.322408,0.17104 -0.725498,1.05936 -0.403091,0.88834 -0.725905,1.722 -0.717361,1.85258 0.0085,0.13052 0.335015,-0.34613 0.725497,-1.05938 z m 12.968026,0.74104 c 0.19755,-0.30567 0.35001,-0.80587 0.3388,-1.11155 -0.0134,-0.36646 -0.12883,-0.30335 -0.3388,0.18526 -0.17514,0.40756 -0.3276,0.90776 -0.3388,1.11154 -0.0112,0.20379 0.14126,0.12044 0.3388,-0.18525 z m 10.2493,0.0927 c 0.10278,-0.25472 0.10278,-0.67156 0,-0.92629 -0.10279,-0.25472 -0.18689,-0.0464 -0.18689,0.46315 0,0.50945 0.0841,0.71787 0.18689,0.46314 z m -27.79411,-0.0927 c 0.06136,0 0.370233,-0.5002 0.686376,-1.11155 0.482459,-0.93297 0.490743,-1.11154 0.05156,-1.11154 -0.29811,0 -0.593428,0.47825 -0.686375,1.11154 -0.08972,0.61135 -0.112926,1.11155 -0.05156,1.11155 z m -1.319723,-0.75801 c 0.425018,-0.22748 0.69898,-0.48736 0.608802,-0.57754 -0.09018,-0.0902 -0.43792,-0.0588 -0.772762,0.0696 -0.334842,0.12841 -0.608805,0.38838 -0.608805,0.57753 0,0.18927 0.347473,0.15794 0.772765,-0.0696 z m 11.098569,0.19306 c 0.195618,-0.12086 0.355665,-0.44618 0.355665,-0.72285 0,-0.27666 0.200204,-0.56975 0.444897,-0.65132 0.315616,-0.10517 0.326104,-0.22171 0.03609,-0.40096 -0.242761,-0.15002 -0.567922,0.2038 -0.80056,0.87114 -0.232243,0.66623 -0.246942,1.0343 -0.03609,0.90399 z m -6.120395,-1.81636 c 0.29709,-0.39269 0.478191,-0.77594 0.402454,-0.85169 -0.07575,-0.0758 -0.574212,-0.0281 -1.107718,0.10573 -0.533505,0.13388 -0.970008,0.38688 -0.970008,0.56218 0,0.17528 0.250098,0.22274 0.555773,0.10545 0.323718,-0.12422 0.560693,-0.003 0.567555,0.28951 0.0078,0.33189 0.195383,0.2601 0.551944,-0.2112 z m 4.252969,-0.39755 c 0.203784,-0.12589 0.370516,-0.36804 0.370516,-0.53801 0,-0.16995 -0.23365,-0.39865 -0.519221,-0.50825 -0.339981,-0.13051 -0.477676,0.0157 -0.398867,0.4235 0.0662,0.34252 0.13312,0.67428 0.14871,0.73726 0.0156,0.063 0.195079,0.0112 0.398862,-0.11455 z m 8.58707,0.18526 c 0.0961,-0.10195 0.61327,-1.04301 1.14937,-2.09137 0.86982,-1.70092 0.90107,-1.88684 0.29034,-1.72713 -0.37642,0.0984 -0.78164,0.62272 -0.90049,1.16507 -0.11885,0.54237 -0.32809,1.40294 -0.46497,1.91239 -0.13689,0.50946 -0.1703,0.84293 -0.0743,0.74104 z m -1.26006,-0.92629 c 0.20379,-0.20379 0.48386,-0.74567 0.62239,-1.20418 0.13852,-0.45851 0.11558,-0.83111 -0.051,-0.82799 -0.16657,0.003 -0.55296,0.16731 -0.85863,0.36484 -0.40834,0.2639 -0.42629,0.36068 -0.0677,0.36486 0.33324,0.004 0.4082,0.27017 0.23624,0.83932 -0.16791,0.55577 -0.12837,0.71016 0.11864,0.46315 z m 4.70527,-2.13047 c 0.3239,-0.5604 0.82145,-1.01891 1.10567,-1.01891 0.28423,0 0.57743,0.29178 0.65156,0.6484 0.10959,0.52724 0.17742,0.49262 0.36299,-0.18526 0.20423,-0.74605 0.0956,-0.83365 -1.0339,-0.83365 -0.69416,0 -1.26439,0.12505 -1.26717,0.27787 -0.003,0.15285 -0.0957,0.69473 -0.20656,1.20418 -0.19843,0.91219 -0.19253,0.91078 0.38741,-0.0926 z m 5.83101,0.46314 c 0.18462,0 0.23191,-0.16792 0.10507,-0.37314 -0.12685,-0.20524 -0.73574,-0.63436 -1.3531,-0.95361 -0.61737,-0.31926 -1.21815,-0.4848 -1.33507,-0.36788 -0.11691,0.11693 -0.0436,0.21258 0.163,0.21258 0.20657,0 0.76007,0.33347 1.22999,0.74103 0.46993,0.40757 1.00548,0.74102 1.19011,0.74102 z M 48.832455,219.33351 c 1.388474,0.0155 4.30628,-0.24057 6.484014,-0.56919 2.831314,-0.42727 4.698524,-0.95021 6.553124,-1.83532 1.426483,-0.68079 4.004224,-2.25149 5.728307,-3.49047 1.843866,-1.32503 3.939755,-2.48669 5.089716,-2.82099 1.075256,-0.31259 2.123933,-0.46394 2.330395,-0.33634 0.206461,0.12757 0.375384,0.0426 0.375384,-0.18888 0,-0.23149 -0.478832,-0.89972 -1.064071,-1.48496 -0.585237,-0.58524 -1.543944,-1.1699 -2.130463,-1.29925 -0.586514,-0.12939 -1.274805,-0.29939 -1.529534,-0.37786 -0.25473,-0.0784 -0.463144,-0.3001 -0.463144,-0.4925 0,-0.1924 0.541878,-0.26866 1.204174,-0.16947 0.662295,0.0991 1.851278,0.62267 2.64218,1.16327 0.790905,0.54062 1.604041,1.45922 1.806969,2.04134 0.257316,0.73813 0.550941,0.99788 0.970342,0.85837 0.330759,-0.11007 1.268307,-0.37132 2.08344,-0.58066 0.815134,-0.20936 1.934581,-0.46839 2.487661,-0.57564 0.861936,-0.16713 0.961832,-0.31356 0.699217,-1.02493 -0.168514,-0.45647 -0.601054,-0.88803 -0.961204,-0.95903 -0.360149,-0.071 -0.79078,0.0909 -0.956956,0.35978 -0.166176,0.26889 -0.430358,0.36065 -0.587066,0.20395 -0.15671,-0.15672 -0.107059,-0.5687 0.110321,-0.91556 0.217385,-0.34685 0.734158,-0.6814 1.148378,-0.74343 0.528444,-0.0791 0.99596,0.2801 1.567072,1.20418 0.447664,0.72433 1.06961,1.31696 1.382103,1.31696 0.496601,0 0.489854,-0.11945 -0.05356,-0.94887 -0.341953,-0.5219 -0.560437,-1.13275 -0.485527,-1.35748 0.07491,-0.22474 0.481925,0.17735 0.904483,0.89353 0.541708,0.91813 1.123058,1.37309 1.971289,1.54274 0.661654,0.13233 1.405504,0.24061 1.652993,0.24061 0.247494,0 0.649725,-0.43837 0.893851,-0.97417 0.244121,-0.5358 0.534489,-0.88354 0.645262,-0.77277 0.110769,0.11077 0.01956,0.54118 -0.202675,0.95644 -0.330663,0.61785 -0.254933,0.89397 0.416803,1.51978 l 0.820884,0.76477 1.05894,-1.21017 c 0.582419,-0.6656 1.582389,-1.95644 2.222153,-2.86854 0.639768,-0.9121 1.542169,-2.57942 2.00534,-3.70516 0.463166,-1.12573 0.846078,-2.83545 0.850913,-3.79939 0.0053,-1.06962 -0.377808,-2.694 -0.983251,-4.16829 -0.545627,-1.32863 -1.129189,-2.41568 -1.296802,-2.41568 -0.167618,0 -0.304756,-0.22104 -0.304756,-0.4912 0,-0.27014 -0.375147,-0.83421 -0.83366,-1.25346 -0.458513,-0.41925 -1.401936,-1.0498 -2.096497,-1.40124 -1.033903,-0.52312 -1.940695,-0.60584 -5.001954,-0.45628 -2.056515,0.10055 -4.07258,0.27466 -4.480146,0.38705 -0.407567,0.11245 -2.074885,0.68641 -3.705152,1.27558 -1.630266,0.58918 -4.131243,1.61384 -5.557727,2.27701 -1.426483,0.66317 -3.426849,1.5393 -4.445254,1.94695 -1.01841,0.40765 -2.0188,0.86297 -2.223091,1.0118 -0.204295,0.14884 -1.589626,0.73699 -3.078511,1.30698 -1.48889,0.57001 -2.801387,0.94206 -2.916658,0.82678 -0.115265,-0.11525 0.68608,-0.62658 1.780784,-1.13624 1.094703,-0.50963 2.824027,-1.24865 3.842943,-1.64223 1.018917,-0.39358 3.463898,-1.48915 5.433293,-2.43461 l 3.580718,-1.71902 -1.236417,-1.8373 c -0.680029,-1.01052 -1.582741,-2.76295 -2.006027,-3.89428 -0.600529,-1.60505 -0.766067,-2.88831 -0.753477,-5.84085 0.0088,-2.08114 0.165561,-4.53418 0.348188,-5.4512 0.272984,-1.37071 0.224625,-1.74967 -0.271858,-2.13021 -0.332152,-0.25458 -1.53091,-0.81751 -2.663907,-1.25094 -1.677489,-0.64172 -3.332773,-0.84546 -8.914528,-1.09723 -6.350017,-0.28643 -7.086333,-0.25134 -10.003908,0.47687 -1.732158,0.43234 -4.279525,1.24315 -5.660814,1.80182 -1.381289,0.55868 -3.665569,1.7131 -5.076176,2.56539 -1.410608,0.85231 -3.432616,2.40394 -4.493352,3.44808 -1.060735,1.04414 -2.670535,2.90575 -3.577331,4.1369 -0.906797,1.23116 -2.006305,2.90541 -2.44335,3.72055 -0.704079,1.31317 -0.794627,2.07314 -0.794627,6.66927 0,3.04472 0.213799,6.18193 0.517631,7.59555 0.284697,1.3246 0.998842,3.39533 1.586988,4.60162 0.588146,1.20631 1.824091,3.25094 2.746541,4.54365 0.922452,1.2927 2.042356,2.72602 2.488679,3.18516 0.446322,0.45914 1.507657,1.30467 2.358523,1.87896 0.850866,0.5743 1.629218,1.25836 1.72967,1.52014 0.100448,0.26177 0.988239,0.9335 1.972863,1.49274 0.984624,0.55924 2.790616,1.31866 4.013316,1.6876 1.222699,0.36894 3.359115,0.68355 4.74759,0.69912 z m 57.224055,-12.65215 c 0.86772,-0.58757 2.22385,-1.93471 3.01363,-2.99365 0.78977,-1.05894 1.72402,-2.49486 2.07611,-3.19093 0.42153,-0.83334 0.58099,-1.7824 0.46691,-2.77885 -0.0953,-0.83231 -0.53416,-2.34696 -0.97528,-3.36587 -0.6017,-1.38985 -1.19342,-2.07973 -2.36899,-2.76199 -0.86183,-0.50019 -1.81707,-0.9758 -2.12274,-1.05692 -0.30568,-0.0811 -1.87038,-0.23243 -3.47712,-0.33626 -2.10551,-0.13597 -3.580004,-0.01 -5.279842,0.44966 -1.297171,0.35113 -2.358492,0.75709 -2.358492,0.90212 0,0.14505 0.500195,1.29631 1.111546,2.55837 0.886019,1.82908 1.111545,2.78374 1.111545,4.70524 0,1.88665 -0.241595,2.9434 -1.111545,4.86203 -0.611351,1.34831 -1.111546,2.52161 -1.111546,2.60734 0,0.0857 0.158525,0.0578 0.352282,-0.0619 0.193753,-0.11973 0.936465,-0.23968 1.65047,-0.26651 0.714005,-0.0269 1.373711,-0.24562 1.466013,-0.48616 0.0923,-0.24054 0.02161,-0.67232 -0.157105,-0.95952 -0.265318,-0.42637 -0.462024,-0.43719 -1.072238,-0.0591 -0.411019,0.25472 -0.8388,0.46314 -0.950626,0.46314 -0.111833,0 -0.02486,-0.33346 0.193264,-0.74103 0.218122,-0.40757 0.607578,-0.74102 0.865457,-0.74102 0.257878,0 0.91119,0.20841 1.451808,0.46314 0.540615,0.25473 1.072227,0.81836 1.181359,1.25252 0.10913,0.43417 0.51933,0.87331 0.91155,0.97588 0.49566,0.12967 0.7953,-0.0546 0.98261,-0.60414 0.25816,-0.75736 0.27577,-0.75135 0.41885,0.14295 0.0835,0.52181 0.59152,1.1885 1.1519,1.51159 0.95327,0.54962 1.08007,0.52553 2.58022,-0.49027 z m 19.71379,-8.06838 c 0.54461,0 1.8477,-0.25465 2.89576,-0.5659 1.5282,-0.45381 2.25694,-0.97519 3.67978,-2.63265 0.97581,-1.13673 2.66082,-3.00789 3.74447,-4.15817 1.19481,-1.26829 2.52918,-3.25802 3.3904,-5.05554 0.78107,-1.63026 2.20292,-4.85806 3.15967,-7.17287 0.95673,-2.31483 2.30402,-5.17193 2.99395,-6.34911 0.68993,-1.17719 1.84114,-3.41056 2.55826,-4.96306 0.86875,-1.88078 1.30383,-3.36894 1.30383,-4.45966 0,-1.27667 -0.26503,-1.98364 -1.20418,-3.21222 -0.66229,-0.86639 -1.93901,-1.96311 -2.83714,-2.43715 -0.98947,-0.52224 -2.27215,-0.86187 -3.25504,-0.86187 -0.89215,0 -2.04156,0.27485 -2.55426,0.61078 -0.51271,0.33594 -1.1776,1.08536 -1.47754,1.66537 -0.29993,0.58002 -0.55943,2.05584 -0.57665,3.27961 -0.0227,1.61148 -0.17001,2.22505 -0.53425,2.22505 -0.27658,0 -0.69717,0.36301 -0.93463,0.80669 -0.23745,0.44369 -0.65176,1.74992 -0.92071,2.90273 -0.26892,1.15283 -1.08346,3.33247 -1.81006,4.84366 -0.7266,1.5112 -1.8953,3.81245 -2.5971,5.1139 -0.70181,1.30143 -1.38511,3.0938 -1.51846,3.98303 -0.13335,0.88923 -0.41292,1.61678 -0.62126,1.61678 -0.23596,0 -0.29239,-0.63047 -0.14966,-1.67182 0.12603,-0.91952 0.55039,-2.33674 0.94303,-3.14939 0.39263,-0.81265 0.60107,-1.47756 0.4632,-1.47756 -0.13788,0 -0.64827,-1.001 -1.13423,-2.22445 -0.48595,-1.22344 -1.10831,-2.41097 -1.38301,-2.63897 -0.27471,-0.22798 -0.49947,-0.56083 -0.49947,-0.73966 0,-0.17884 0.23057,-0.32515 0.51239,-0.32515 0.28182,0 0.9255,0.87534 1.4304,1.9452 0.5049,1.06987 1.04118,2.33713 1.19173,2.81616 0.15055,0.47903 0.40923,0.72913 0.57484,0.55578 0.16562,-0.17335 0.85464,-1.39894 1.53118,-2.72354 0.67652,-1.32459 1.42674,-3.15864 1.66715,-4.07566 0.2404,-0.91703 0.37942,-1.72585 0.30893,-1.79736 -0.0705,-0.0716 -0.72098,0.32211 -1.44553,0.87474 -0.72454,0.55264 -1.54254,0.91839 -1.81777,0.81278 -0.32008,-0.12282 -0.44241,-0.58732 -0.33944,-1.28889 0.0885,-0.60327 -0.10235,-1.6061 -0.42422,-2.22853 l -0.58521,-1.13167 -2.37947,2.37946 c -1.44162,1.44163 -2.69167,2.37947 -3.17159,2.37947 -0.70461,0 -0.76525,-0.14327 -0.54884,-1.2968 0.1338,-0.71325 0.13473,-1.87546 0.002,-2.58271 -0.13269,-0.70724 -0.67475,-1.8011 -1.20461,-2.43079 l -0.96337,-1.1449 -1.15235,1.09251 c -0.63379,0.60089 -1.68594,1.36128 -2.33812,1.68978 -0.65218,0.32848 -1.36396,0.59724 -1.58175,0.59724 -0.23812,0 -0.30262,-0.37194 -0.1618,-0.933 0.12879,-0.51315 0.12004,-1.84649 -0.0195,-2.96298 -0.24258,-1.94151 -0.2888,-2.01139 -1.06077,-1.60411 -0.44393,0.23423 -1.36921,1.01727 -2.05619,1.74013 -0.68697,0.72285 -1.57651,2.07296 -1.97676,3.00026 -0.55587,1.28782 -0.69604,2.2985 -0.59355,4.27959 0.12794,2.47318 0.23954,2.74956 2.40341,5.95238 1.33762,1.97985 2.65494,4.48969 3.20874,6.11349 0.51674,1.51511 1.0402,3.37617 1.16325,4.13571 0.12305,0.75952 0.78934,2.12194 1.48064,3.02759 0.6913,0.90565 1.96783,3.11542 2.83675,4.91059 0.86891,1.79517 1.98813,3.64233 2.48715,4.10482 0.49902,0.46247 1.35289,0.84086 1.8975,0.84086 z m 28.78636,-2.5939 c 0.48864,1.8e-4 1.42476,-0.69965 2.40835,-1.80046 1.06523,-1.19216 2.01471,-2.85132 2.80941,-4.90932 0.66021,-1.70972 1.5223,-4.45382 1.91578,-6.098 0.39346,-1.64419 1.31502,-4.52394 2.04789,-6.39946 0.73287,-1.8755 1.46699,-4.39341 1.63136,-5.59535 0.2839,-2.07593 0.25489,-2.20539 -0.57947,-2.58555 -0.48309,-0.22011 -1.00128,-0.4002 -1.15154,-0.4002 -0.15026,0 -0.59258,0.54187 -0.98295,1.20418 -0.39037,0.66229 -0.84196,1.37089 -1.00355,1.57469 -0.16157,0.20378 -0.89485,1.1208 -1.6295,2.03782 -0.73465,0.91704 -2.42478,2.87613 -3.75588,4.35356 -1.33108,1.47742 -2.67007,2.68624 -2.97557,2.68624 -0.45664,0 -0.50829,-0.34586 -0.29045,-1.94522 0.14574,-1.06985 0.3781,-3.11232 0.51638,-4.5388 0.13821,-1.42649 0.14618,-4.34429 0.0175,-6.48401 -0.19115,-3.18021 -0.50701,-4.69225 -1.73019,-8.28281 -0.82299,-2.41581 -1.65663,-4.55267 -1.85251,-4.74856 -0.2279,-0.22789 -0.75816,0.35327 -1.47225,1.61353 l -1.11609,1.96971 1.2318,1.36843 c 0.67748,0.75263 1.42338,2.0799 1.65753,2.94947 0.31827,1.18196 0.31978,1.93467 0.006,2.98194 -0.23083,0.77049 -1.26695,3.02796 -2.30249,5.0166 -1.03553,1.98864 -2.43915,4.69945 -3.11919,6.02405 -0.68002,1.3246 -1.24372,2.54324 -1.25267,2.70811 -0.008,0.16485 0.12071,0.21508 0.28814,0.11161 0.16744,-0.10349 0.55931,0.10951 0.87084,0.47338 0.31152,0.36383 0.84146,1.46875 1.17764,2.45537 0.33617,0.98662 0.61412,2.22267 0.61766,2.74676 0.004,0.5241 0.24927,2.0991 0.54606,3.50001 0.39708,1.87414 0.92649,3.05946 2.00389,4.48648 0.87458,1.15836 2.10951,2.25877 3.06647,2.73246 0.88119,0.43619 1.96189,0.7932 2.40151,0.79335 z m -0.80388,-17.0434 c 0.0738,0 1.41083,-1.45641 2.97128,-3.23647 1.56045,-1.78005 4.07333,-5.10059 5.58419,-7.37896 1.51087,-2.27838 2.95458,-4.21168 3.20826,-4.29625 0.33518,-0.11175 0.28964,-0.3253 -0.1666,-0.78154 -0.34531,-0.34531 -1.22775,-1.35996 -1.961,-2.25479 -0.73325,-0.89483 -2.32497,-3.57559 -3.53717,-5.95722 -1.21219,-2.38164 -2.20399,-4.56318 -2.20399,-4.84786 0,-0.28468 0.12505,-0.50626 0.27789,-0.4924 0.15283,0.014 1.16814,1.86278 2.25626,4.10871 1.08811,2.24592 3.06157,5.50316 4.38546,7.23829 l 2.4071,3.15479 -0.25355,2.18463 c -0.23327,2.00983 -0.19538,2.18464 0.47355,2.18464 0.39992,0 2.01175,-1.04207 3.58186,-2.31571 1.57011,-1.27365 3.80194,-3.02247 4.95963,-3.88626 1.15768,-0.86379 2.83449,-1.98923 3.72623,-2.50098 0.89175,-0.51174 1.95424,-0.93043 2.36109,-0.93043 0.6185,0 0.66345,-0.0919 0.27426,-0.56087 -0.256,-0.30846 -1.90206,-1.42143 -3.65788,-2.47325 -1.75585,-1.05182 -3.66265,-2.29911 -4.23736,-2.77174 -0.57472,-0.47264 -1.74456,-1.7356 -2.59965,-2.80658 -0.85511,-1.07099 -1.98287,-2.61417 -2.50615,-3.4293 -0.52328,-0.81513 -1.60431,-2.46344 -2.4023,-3.66289 -0.79799,-1.19944 -2.56097,-3.26704 -3.91775,-4.59463 -1.35679,-1.32761 -3.18166,-2.89388 -4.05528,-3.48061 -0.87362,-0.58674 -1.98552,-1.16646 -2.47087,-1.28827 -0.48536,-0.12184 -1.95656,0.0693 -3.26935,0.4246 -1.60187,0.43361 -2.6283,0.95304 -3.12096,1.57934 -0.40374,0.51327 -0.73431,1.36924 -0.73457,1.90217 -3.8e-4,0.94042 0.0583,0.96529 1.99455,0.84454 1.73999,-0.10853 2.07166,-0.0151 2.59411,0.73085 0.37798,0.53962 0.59757,1.61104 0.59504,2.90327 -0.003,1.12641 -0.23591,2.79832 -0.51932,3.71534 -0.28342,0.91702 -0.84191,2.41886 -1.24112,3.33742 -0.39919,0.91855 -1.16574,2.19294 -1.70345,2.83197 -0.74877,0.88985 -0.85688,1.20822 -0.46176,1.35983 0.28373,0.10895 1.13248,2.04841 1.88609,4.31007 0.75362,2.26165 1.48004,4.64964 1.61426,5.30665 0.13416,0.657 0.24405,3.86227 0.24405,7.1228 0,3.26052 -0.11455,6.55349 -0.25459,7.31767 -0.14004,0.76418 -0.19425,1.38943 -0.12043,1.38943 z m 9.34275,-30.60818 c -0.0655,0.19668 -0.6548,-0.43598 -1.3094,-1.40593 -0.65461,-0.96994 -1.52347,-2.41679 -1.93079,-3.21521 -0.52355,-1.02625 -0.60265,-1.44797 -0.26991,-1.43904 0.25886,0.007 1.18137,1.29288 2.04999,2.85762 0.86862,1.56472 1.52568,3.00588 1.46011,3.20256 z m -38.43125,20.60428 c 0.15883,0 0.96703,-0.65822 1.79599,-1.46271 0.82897,-0.80448 1.77648,-1.9834 2.10559,-2.61981 0.46793,-0.9049 0.70706,-1.06693 1.09694,-0.74336 0.27421,0.22757 0.78487,1.0171 1.13479,1.7545 0.34992,0.7374 0.63622,1.73013 0.63622,2.20606 0,0.47591 0.12005,0.86532 0.26677,0.86532 0.14673,0 0.56471,-0.32922 0.92884,-0.73157 0.36414,-0.40237 0.9596,-0.82601 1.32326,-0.94143 0.36366,-0.11539 0.84395,-0.7341 1.06731,-1.37484 0.22336,-0.64073 0.63616,-1.42589 0.91733,-1.74481 0.28116,-0.31891 0.63155,-1.47959 0.77863,-2.57929 0.26492,-1.98083 0.25925,-1.99682 -0.60847,-1.71568 -0.48175,0.15608 -2.02609,0.39244 -3.43189,0.52522 -1.9126,0.18065 -3.21464,0.0703 -5.17265,-0.43823 -1.6696,-0.43368 -3.5215,-1.2812 -5.11666,-2.34166 -1.37501,-0.91411 -3.19026,-2.44582 -4.03389,-3.40383 -0.84364,-0.95799 -2.05104,-2.67496 -2.68311,-3.81546 -0.98298,-1.7737 -1.36584,-2.13148 -2.64668,-2.47337 -0.82361,-0.21983 -1.54295,-0.35421 -1.59854,-0.29861 -0.0556,0.0556 0.23472,0.52796 0.64514,1.04973 0.41042,0.52176 0.74622,1.13079 0.74622,1.35336 0,0.22259 -0.50761,0.40471 -1.12803,0.40471 -0.62041,0 -2.19982,0.26922 -3.5098,0.59828 -1.30998,0.32906 -2.58102,0.83835 -2.82452,1.13175 -0.35357,0.42602 -0.28142,0.69478 0.3583,1.3345 0.64726,0.64725 1.28156,0.81231 3.30414,0.85982 2.36468,0.0556 2.49633,0.10446 2.38058,0.88513 -0.0674,0.45449 -0.42428,1.51738 -0.79307,2.36197 -0.3688,0.84461 -1.02057,1.902 -1.44839,2.34977 -0.49066,0.51353 -0.63325,0.9035 -0.38621,1.05618 0.21541,0.13317 1.45912,0.0406 2.76382,-0.20555 1.47146,-0.27765 2.76333,-0.78401 3.40236,-1.3336 0.56661,-0.48732 1.13441,-0.88623 1.26177,-0.88646 0.12737,-2.6e-4 0.33578,0.52057 0.46315,1.1574 0.12736,0.63682 0.23157,2.05404 0.23157,3.14937 0,1.1097 0.16773,1.99152 0.37879,1.99152 0.20834,0 1.10233,-0.66692 1.98664,-1.48205 0.88431,-0.81514 1.85831,-1.48207 2.16442,-1.48207 0.30612,0 0.9794,0.62525 1.49619,1.38943 0.51679,0.76419 1.05633,1.78171 1.19899,2.26117 0.14265,0.47945 0.25937,1.43816 0.25937,2.13046 0,0.6923 0.12996,1.25874 0.28879,1.25874 z m 72.01999,40.40192 c -0.26435,0.26435 -1.32015,-0.97373 -3.39775,-3.98442 -1.65783,-2.40238 -4.31074,-6.11145 -5.89533,-8.24238 -1.58461,-2.13093 -4.52577,-5.93283 -6.53593,-8.44866 -2.01015,-2.51582 -3.55242,-4.67664 -3.42726,-4.8018 0.1252,-0.1252 0.27751,-0.15809 0.33857,-0.0732 0.0611,0.0849 1.03017,1.23814 2.1536,2.56272 1.12342,1.3246 2.36564,2.84312 2.76049,3.37449 0.39483,0.53139 2.39926,3.1991 4.45427,5.92825 2.05501,2.72916 4.87426,6.62942 6.26503,8.66726 1.39075,2.03782 2.78496,3.91418 3.09823,4.16967 0.3926,0.32018 0.45042,0.58371 0.18608,0.84805 z m -25.04958,-14.84348 c -0.25473,-0.004 -1.09076,-1.04598 -1.85786,-2.31573 -0.76711,-1.26973 -1.59998,-2.64208 -1.85083,-3.04964 -0.25086,-0.40757 -1.08214,-1.60923 -1.84729,-2.67034 -0.76514,-1.06112 -1.39117,-2.01983 -1.39117,-2.13046 0,-0.11063 0.2501,-0.20116 0.55577,-0.20116 0.30567,0 0.55578,0.13289 0.55578,0.29515 0,0.16235 0.25355,0.62086 0.56347,1.01893 0.30991,0.39807 1.72713,2.52553 3.14938,4.72768 1.42224,2.20217 2.5859,4.0779 2.5859,4.16831 0,0.0903 -0.20842,0.16117 -0.46315,0.15726 z m 36.63364,-3.43455 c -0.13444,0.13443 -2.2042,-1.74562 -4.59954,-4.17786 -2.39534,-2.43224 -5.01825,-5.17253 -5.82868,-6.08956 -0.81044,-0.91702 -2.22382,-2.65393 -3.14084,-3.8598 -0.91704,-1.20586 -3.14783,-3.83807 -4.95735,-5.84936 -1.8095,-2.01127 -3.17069,-3.77572 -3.02486,-3.92101 0.14585,-0.14528 0.59905,0.15268 1.00712,0.66215 0.40808,0.50946 1.76926,2.08074 3.02486,3.49176 1.2556,1.41101 3.55205,4.16209 5.10322,6.11349 1.55118,1.95142 5.03436,5.76154 7.74038,8.46692 2.70604,2.70539 4.81009,5.02886 4.67569,5.16327 z m -21.44193,-8.56981 c -0.10825,0.10825 -1.25355,-1.10483 -2.54523,-2.69564 -1.29167,-1.5908 -3.2392,-3.95051 -4.32785,-5.24379 -1.08863,-1.29329 -1.87063,-2.46015 -1.73773,-2.59303 0.13289,-0.13289 0.48206,0.0916 0.77597,0.49884 0.2939,0.40726 1.32234,1.64201 2.28542,2.7439 0.96308,1.1019 2.00115,2.36515 2.30683,2.80725 0.30568,0.44208 1.20456,1.58722 1.99755,2.54477 0.79298,0.95753 1.35324,1.8295 1.24504,1.9377 z m -79.56871,-36.00308 c -0.55949,0.12239 -1.47194,-0.0889 -2.30427,-0.53367 -0.7579,-0.40495 -1.54988,-1.05742 -1.75995,-1.44996 -0.21008,-0.39252 -0.38196,-1.3625 -0.38196,-2.15552 0,-1.01904 0.24446,-1.66866 0.83366,-2.21535 0.45851,-0.42542 1.08376,-0.8077 1.38943,-0.84951 0.30568,-0.0417 0.76419,-0.0563 1.01892,-0.0321 0.25473,0.0242 0.46314,0.21063 0.46314,0.41442 0,0.20378 -0.39099,0.37051 -0.86886,0.37051 -0.47787,0 -1.1448,0.3049 -1.48206,0.67757 -0.33726,0.37266 -0.6132,1.13578 -0.6132,1.69582 0,0.63141 0.41146,1.4297 1.08305,2.10129 0.70621,0.70622 1.46232,1.08304 2.17312,1.08304 0.59954,0 1.5294,-0.34557 2.06633,-0.76792 0.57565,-0.45279 0.97626,-1.13699 0.97626,-1.66731 0,-0.49467 0.16673,-0.8994 0.37052,-0.8994 0.20378,0 0.37051,0.23924 0.37051,0.53165 0,0.29241 -0.15929,0.95061 -0.35398,1.46269 -0.19469,0.51206 -0.73656,1.17855 -1.20417,1.48109 -0.46761,0.30252 -1.26703,0.64123 -1.77649,0.75266 z M 96.140096,142.6652 c -1.313017,0 -1.901351,-0.19772 -2.480573,-0.83365 -0.417626,-0.45851 -0.946885,-1.19785 -1.176133,-1.64296 -0.229249,-0.44513 -0.414262,-1.52887 -0.411142,-2.40836 0.0029,-0.87948 0.157773,-1.83943 0.343667,-2.13323 0.235969,-0.37296 0.0665,-0.85685 -0.561449,-1.60312 -0.49469,-0.58792 -0.899436,-1.35816 -0.899436,-1.71166 0,-0.35351 0.324107,-0.99064 0.720243,-1.41583 0.396133,-0.4252 0.938011,-0.85618 1.204175,-0.95773 0.342052,-0.13052 0.242706,-0.36277 -0.338874,-0.79223 -0.452538,-0.33419 -1.015992,-1.25243 -1.252114,-2.04053 -0.236118,-0.7881 -0.318277,-2.02478 -0.182564,-2.74819 0.170371,-0.90814 0.721941,-1.72201 1.781948,-2.62933 0.844363,-0.72275 1.777294,-1.31409 2.07318,-1.31409 0.29589,0 1.100574,0.3477 1.788195,0.77269 0.687616,0.42497 1.161146,0.91678 1.052286,1.09293 -0.108865,0.17614 -0.767408,-0.0157 -1.463431,-0.42641 -0.928716,-0.54795 -1.443628,-0.65066 -1.934838,-0.38593 -0.36814,0.19841 -1.022606,0.7512 -1.454376,1.22842 -0.431769,0.47723 -0.885545,1.29467 -1.008394,1.81655 -0.122841,0.52188 -0.05407,1.56197 0.152845,2.31136 0.20691,0.74936 0.660688,1.50866 1.008391,1.6873 0.347705,0.17865 0.882289,0.23692 1.187964,0.12954 0.305674,-0.10741 0.758885,-0.46004 1.007133,-0.78359 0.395681,-0.51573 0.452815,-0.48546 0.463145,0.24536 0.0064,0.45852 -0.113262,0.83621 -0.266104,0.83934 -0.152838,0.003 -0.527173,0.16327 -0.831855,0.35589 -0.475207,0.3004 -0.448868,0.42962 0.185257,0.90882 0.69764,0.52719 0.652867,0.55928 -0.795822,0.5704 -1.050064,0.008 -1.6061,0.19695 -1.759947,0.59786 -0.123695,0.32234 -0.224898,0.90004 -0.224898,1.28377 0,0.38373 0.315645,0.86662 0.701434,1.07309 0.538287,0.28807 0.92608,0.19868 1.667318,-0.38438 0.767899,-0.60403 0.965884,-0.64585 0.965884,-0.20399 0,0.30568 -0.425307,0.89032 -0.945128,1.29921 -0.519826,0.4089 -1.108553,1.29634 -1.308286,1.9721 -0.249579,0.8444 -0.229811,1.71689 0.0632,2.7898 0.251292,0.92013 0.796419,1.80362 1.327623,2.15167 0.528366,0.3462 1.46322,0.54343 2.259442,0.4767 1.068533,-0.0896 1.539223,-0.38341 2.207151,-1.37787 0.794854,-1.18343 0.811446,-1.32131 0.260202,-2.16261 -0.32383,-0.49422 -0.499284,-0.98809 -0.389897,-1.09747 0.109383,-0.10937 0.456171,-0.10013 0.770634,0.0206 0.314464,0.12071 0.598168,0.59978 0.630458,1.06469 0.0323,0.46491 0.029,1.16683 -0.007,1.55983 -0.0363,0.393 -0.592972,1.18497 -1.236982,1.75995 -0.928322,0.82879 -1.527557,1.0454 -2.892183,1.0454 z m 17.303784,-0.74103 c -0.2657,0 -1.01275,-0.54646 -1.66009,-1.21436 -0.64736,-0.6679 -1.28148,-1.73672 -1.40917,-2.37518 -0.12769,-0.63845 -0.0327,-1.76521 0.2111,-2.50392 0.24379,-0.73869 0.8487,-1.60874 1.34424,-1.93343 0.49554,-0.32469 1.55904,-0.60761 2.36334,-0.6287 0.8043,-0.0211 1.67615,0.18039 1.93745,0.44771 0.39047,0.3995 0.21113,0.46949 -1.00698,0.39299 -0.81513,-0.0511 -1.84112,0.0251 -2.27997,0.16937 -0.43884,0.14435 -1.07562,0.8477 -1.41505,1.56301 -0.3909,0.82376 -0.5303,1.69599 -0.38024,2.37919 0.1303,0.59327 0.80876,1.58074 1.50768,2.19442 0.69893,0.61365 1.27078,1.2042 1.27078,1.31233 0,0.1081 -0.21739,0.19657 -0.48309,0.19657 z m 0.7832,-2.5936 c -0.30568,0 -0.81325,-0.29179 -1.12794,-0.6484 -0.39604,-0.44882 -0.47718,-0.89756 -0.26358,-1.45785 0.16972,-0.44519 0.62952,-0.9812 1.02179,-1.19113 0.39227,-0.20994 0.8185,-0.27642 0.94719,-0.14774 0.12868,0.1287 0.23397,0.37292 0.23397,0.54275 0,0.16982 -0.25533,0.30876 -0.5674,0.30876 -0.31207,0 -0.66575,0.25631 -0.78597,0.56958 -0.12021,0.31326 0.0776,0.89682 0.43957,1.2968 0.54384,0.60093 0.56162,0.72723 0.10237,0.72723 z m -5.43031,-0.77154 c -0.54079,0.28942 -0.84494,0.2223 -1.30718,-0.28848 -0.33133,-0.36611 -0.60241,-1.07398 -0.60241,-1.57305 0,-0.49906 0.36202,-1.21737 0.80448,-1.59623 0.55387,-0.47423 0.97342,-0.58226 1.34675,-0.34677 0.29824,0.18813 0.51843,0.498 0.4893,0.6886 -0.0291,0.1906 -0.42674,0.35127 -0.8836,0.35706 -0.45685,0.006 -0.81397,0.21893 -0.79359,0.47366 0.0204,0.25473 0.0621,0.73108 0.0926,1.05855 0.0337,0.36151 0.26925,0.51342 0.59948,0.3867 0.29915,-0.11483 0.63728,-0.0577 0.75141,0.12702 0.11413,0.18465 -0.10965,0.50548 -0.49727,0.71293 z m -5.77415,-0.34001 c -0.26493,0 -0.90434,-0.33246 -1.42092,-0.73879 -0.51658,-0.40635 -1.10781,-1.22239 -1.31385,-1.81343 -0.2825,-0.81041 -0.24072,-1.33269 0.16993,-2.12424 0.29951,-0.57727 0.7432,-1.17591 0.986,-1.33028 0.24279,-0.15437 0.81659,-0.28323 1.2751,-0.28635 0.45852,-0.003 0.83366,0.14022 0.83366,0.31853 0,0.17831 -0.49575,0.42336 -1.10166,0.54453 -0.76583,0.15318 -1.17131,0.49781 -1.33012,1.13055 -0.12564,0.50062 -0.005,1.3687 0.26801,1.92908 0.27305,0.56039 0.96689,1.1741 1.54186,1.36383 0.865,0.28542 1.20067,0.19909 1.9452,-0.50037 0.49489,-0.46492 0.8998,-1.0762 0.8998,-1.35838 0,-0.28217 0.16938,-0.40837 0.3764,-0.28042 0.23771,0.14691 0.13532,0.64721 -0.27788,1.35784 -0.35986,0.61887 -1.04029,1.27433 -1.51207,1.45656 -0.47177,0.18224 -1.07454,0.33134 -1.33946,0.33134 z m 32.3016,-3.89362 c -0.36337,0.15005 -0.64841,0.10517 -0.64841,-0.10223 0,-0.20346 0.67031,-0.63812 1.48956,-0.96593 0.81926,-0.3278 1.77797,-0.60253 2.13047,-0.61051 0.36055,-0.008 0.11413,-0.24343 -0.56327,-0.53788 -0.66231,-0.28786 -1.20418,-0.69817 -1.20418,-0.91179 0,-0.21362 0.0857,-0.3884 0.19028,-0.3884 0.10461,0 0.47981,0.15272 0.83367,0.33936 0.35384,0.18666 1.25213,0.60349 1.99616,0.92629 0.74404,0.32282 1.54992,0.58693 1.79082,0.58693 0.24092,0 0.3667,0.20841 0.27953,0.46314 -0.0965,0.28197 -0.65705,0.41915 -1.43292,0.35067 -0.70092,-0.0619 -1.93566,0.044 -2.74387,0.23502 -0.8082,0.19114 -1.76122,0.46801 -2.11784,0.61527 z m -36.294436,-2.16575 c -1.037001,0.16828 -1.490834,0.0458 -2.104804,-0.5682 -0.481618,-0.48161 -0.782738,-1.25496 -0.782738,-2.01022 0,-0.87002 0.312047,-1.52643 1.071559,-2.25409 0.682247,-0.65364 1.37842,-0.98171 1.916182,-0.90298 0.464544,0.0681 0.915687,0.33933 1.002537,0.60295 0.1129,0.34265 -0.10256,0.41392 -0.755793,0.24996 -0.709137,-0.17797 -1.090552,-0.004 -1.70358,0.77484 -0.434434,0.5523 -0.789876,1.30323 -0.789876,1.66877 0,0.36553 0.262007,0.9266 0.58224,1.24684 0.320228,0.32022 0.932345,0.58223 1.360257,0.58223 0.427907,0 1.083949,-0.27687 1.457862,-0.61526 0.37392,-0.33838 0.79395,-0.50115 0.93341,-0.36168 0.13946,0.13947 0.002,0.50528 -0.30582,0.81293 -0.30766,0.30766 -1.154304,0.65592 -1.881436,0.77391 z m 7.742126,-0.88069 c -0.24228,0.0889 -0.64892,0.0889 -0.90365,8e-5 -0.25473,-0.0889 -0.46314,-0.33224 -0.46314,-0.54084 0,-0.2086 0.2363,-0.2886 0.52511,-0.17777 0.28881,0.11077 0.62227,-0.0517 0.74103,-0.36119 0.11875,-0.30947 0.21592,-0.71577 0.21592,-0.90289 0,-0.18711 -0.34703,-0.68723 -0.77118,-1.11139 -0.73459,-0.73458 -0.8049,-0.74064 -1.48206,-0.12785 -0.39098,0.35383 -0.71088,0.8676 -0.71088,1.14169 0,0.27408 -0.16673,0.49834 -0.37052,0.49834 -0.20378,0 -0.37051,-0.3044 -0.37051,-0.67644 0,-0.37205 0.40264,-1.05471 0.89476,-1.51703 0.62298,-0.58526 1.13244,-0.76515 1.67719,-0.59226 0.43034,0.13653 1.04282,0.64574 1.36107,1.13146 0.38035,0.58048 0.49619,1.25861 0.33801,1.97878 -0.13235,0.60261 -0.43888,1.16838 -0.68115,1.25728 z m 5.96278,0.2473 c -0.46506,-0.0126 -1.17902,-0.15997 -1.58659,-0.32679 -0.40756,-0.16681 -1.03083,-0.62568 -1.38503,-1.01973 -0.3542,-0.39404 -0.73793,-1.20571 -0.85274,-1.80368 -0.16108,-0.83901 0.0105,-1.31987 0.75163,-2.10615 0.52819,-0.5604 1.20371,-1.01892 1.50114,-1.01892 0.29742,0 0.54078,0.14729 0.54078,0.32731 0,0.18001 -0.32588,0.41252 -0.72416,0.51666 -0.39829,0.10419 -0.83628,0.63609 -0.97331,1.18208 -0.13705,0.546 -0.0633,1.4006 0.16383,1.89912 0.22714,0.49852 0.87181,1.08085 1.4326,1.29407 0.56079,0.21321 1.52154,0.28772 2.13501,0.16558 0.61348,-0.12211 1.48185,-0.52803 1.92973,-0.90198 0.44789,-0.37394 0.92616,-1.12545 1.06283,-1.67001 0.1744,-0.69484 0.0525,-1.20665 -0.40861,-1.71622 -0.52613,-0.58136 -0.54965,-0.72609 -0.11801,-0.72609 0.29651,0 0.73918,0.20007 0.98372,0.44462 0.24454,0.24453 0.44461,0.88897 0.44461,1.43209 0,0.54311 -0.36146,1.44699 -0.80324,2.00862 -0.44178,0.56164 -1.35345,1.25105 -2.02593,1.53204 -0.67248,0.28097 -1.60319,0.5003 -2.06825,0.48738 z m 45.364,-3.22155 c -0.65559,0.32705 -1.32017,0.43068 -1.61068,0.25114 -0.38119,-0.2356 -0.24125,-0.57207 0.61047,-1.46783 0.60777,-0.63918 1.55528,-1.39737 2.10556,-1.68486 0.55029,-0.28746 1.09216,-0.52268 1.20418,-0.52268 0.11203,0 0.20365,0.15035 0.20365,0.33412 0,0.18378 -0.54187,0.68652 -1.20418,1.11722 l -1.20416,0.78309 1.48205,-0.0643 c 0.81513,-0.0353 2.02395,0.0587 2.68624,0.20902 0.66229,0.1503 1.20418,0.4242 1.20418,0.60866 0,0.18801 -0.95825,0.23525 -2.18059,0.10755 -1.57766,-0.1649 -2.48921,-0.0739 -3.29672,0.32887 z m -52.84383,-2.70668 c -0.22303,-0.0126 -0.77193,-0.17106 -1.21977,-0.35141 -0.44784,-0.18034 -1.08366,-0.84888 -1.41293,-1.48562 -0.37954,-0.73394 -0.51229,-1.55101 -0.36268,-2.23219 0.1298,-0.59097 0.74705,-1.5045 1.37167,-2.03009 0.84493,-0.71095 1.4709,-0.92695 2.4451,-0.84368 0.72018,0.0616 1.373,0.3057 1.45071,0.5425 0.098,0.29858 -0.3011,0.37124 -1.30175,0.23703 -1.25039,-0.16771 -1.54986,-0.0577 -2.24311,0.82357 -0.44004,0.55942 -0.80007,1.46899 -0.80007,2.02127 0,0.55229 0.29178,1.25473 0.6484,1.561 0.35662,0.30626 0.8427,0.66668 1.08017,0.80092 0.23748,0.1343 0.94609,-0.18867 1.57469,-0.7176 0.69744,-0.58686 1.14292,-0.77294 1.14292,-0.47742 0,0.26635 -0.44276,0.86475 -0.98392,1.32974 -0.54115,0.46499 -1.1664,0.83489 -1.38943,0.82198 z m 37.14002,-1.86573 c -0.27171,-0.0202 -1.24431,-0.28272 -2.16133,-0.58348 -1.22046,-0.4003 -2.61072,-0.49135 -5.18722,-0.33972 -1.93594,0.11399 -3.89504,0.31256 -4.35355,0.44144 -0.49098,0.13794 -0.83366,0.0714 -0.83366,-0.16201 0,-0.21797 0.62524,-0.56995 1.38943,-0.78218 0.76419,-0.21222 2.89002,-0.37338 4.72407,-0.35811 1.83404,0.0153 4.07254,0.22275 4.97442,0.46108 0.90188,0.23832 1.70774,0.64174 1.79082,0.89647 0.083,0.25472 -0.0713,0.44666 -0.34298,0.42651 z m -27.67652,-0.7044 c -0.41121,0 -0.85071,-0.16673 -0.97665,-0.37051 -0.12595,-0.20379 0.0853,-0.37052 0.46932,-0.37052 0.38407,0 1.06084,-0.3859 1.50393,-0.85754 0.44309,-0.47165 0.80561,-1.29585 0.80561,-1.83156 0,-0.58651 -0.32762,-1.20351 -0.82347,-1.55082 -0.45291,-0.31722 -1.46105,-0.57678 -2.24033,-0.57678 -1.18604,0 -1.51966,0.18069 -2.04801,1.10921 -0.34715,0.61005 -0.75622,1.11025 -0.90906,1.11154 -0.15284,10e-4 -0.27788,-0.26058 -0.27788,-0.58192 0,-0.32136 0.48736,-1.07165 1.08304,-1.66733 0.65737,-0.65738 1.4727,-1.08305 2.07447,-1.08305 0.54528,0 1.57234,0.27568 2.28236,0.6126 0.71002,0.33693 1.44383,1.01471 1.63069,1.50618 0.18686,0.49148 0.33974,1.22902 0.33974,1.639 0,0.40998 -0.48737,1.23279 -1.08305,1.82846 -0.59567,0.59568 -1.41949,1.08304 -1.83071,1.08304 z m 8.1455,0 c -0.93226,0 -1.63527,-0.247 -2.06987,-0.72723 -0.41149,-0.45469 -0.56116,-0.9754 -0.39937,-1.38942 0.22611,-0.57866 0.32678,-0.53364 0.7978,0.3567 0.3698,0.69902 0.83191,1.01892 1.47189,1.01892 0.51306,0 1.4379,-0.26118 2.05518,-0.58038 0.63354,-0.32762 1.35693,-1.14185 1.66099,-1.86957 0.4478,-1.07171 0.45791,-1.4582 0.06,-2.2911 -0.26814,-0.56124 -0.84457,-1.05411 -1.31053,-1.12055 -0.49689,-0.0709 -0.92141,0.11483 -1.05427,0.46101 -0.12234,0.3188 -0.36827,0.4895 -0.54653,0.37934 -0.17825,-0.11021 -0.12067,-0.52605 0.12795,-0.92416 0.26635,-0.42649 0.8612,-0.72386 1.44801,-0.72386 0.54777,0 1.25771,0.26176 1.57763,0.58168 0.31993,0.31992 0.68419,0.99009 0.80947,1.48925 0.12528,0.49916 0.0216,1.4053 -0.23036,2.01364 -0.25198,0.60833 -1.02696,1.60548 -1.72218,2.21589 -0.93099,0.81742 -1.636,1.10984 -2.67578,1.10984 z m 29.66341,-0.96754 c -0.25769,0.15927 -0.43725,0.0539 -0.43725,-0.2567 0,-0.2898 0.81105,-1.28557 1.80234,-2.2128 0.99128,-0.92722 2.56732,-2.03437 3.50231,-2.46031 0.935,-0.42594 2.06467,-0.81555 2.51038,-0.86581 0.44572,-0.0503 0.88435,0.11707 0.97474,0.37177 0.098,0.2762 -0.1515,0.46315 -0.61812,0.46315 -0.43037,0 -1.75087,0.48884 -2.93447,1.08632 -1.18361,0.59749 -2.6494,1.65285 -3.25735,2.34525 -0.60794,0.6924 -1.3021,1.38051 -1.54258,1.52913 z m -22.67931,-1.43689 c -0.5156,0.12141 -1.05747,0.10069 -1.20417,-0.0459 -0.14671,-0.1467 -0.26673,-0.41692 -0.26673,-0.60046 0,-0.18355 0.34541,-0.22411 0.76758,-0.0902 0.4903,0.15562 1.02568,0.01 1.48206,-0.40298 0.39296,-0.35562 0.71448,-0.92087 0.71448,-1.25609 0,-0.33522 -0.1973,-0.80679 -0.43844,-1.04794 -0.24115,-0.24114 -0.33303,-0.54387 -0.20418,-0.67272 0.12885,-0.12884 0.71622,-0.0662 1.30525,0.13905 0.58904,0.20534 1.5105,0.28932 2.04769,0.18663 0.53719,-0.10265 1.40098,-0.61099 1.91955,-1.12957 0.51857,-0.51857 1.03667,-1.31661 1.15133,-1.77343 0.11469,-0.4568 0.15295,-1.2171 0.0851,-1.68953 -0.0678,-0.47243 -0.57978,-1.11433 -1.13767,-1.42646 -0.85195,-0.47666 -1.1395,-0.48936 -1.79603,-0.0794 -0.42993,0.26849 -0.87258,0.39728 -0.98366,0.28619 -0.1111,-0.11105 0.009,-0.4561 0.2667,-0.7667 0.25777,-0.31061 0.85725,-0.56473 1.33216,-0.56473 0.47493,0 1.27691,0.18836 1.78217,0.41858 0.50527,0.23022 1.11182,0.88486 1.34788,1.45475 0.23606,0.5699 0.31168,1.42361 0.16805,1.89714 -0.14363,0.47354 -0.58434,1.395 -0.97936,2.04771 -0.39503,0.6527 -1.2353,1.44468 -1.86726,1.75995 -0.63197,0.31526 -1.62361,0.57321 -2.20365,0.57321 -0.65305,0 -1.05462,0.19598 -1.05462,0.51472 0,0.2831 -0.29178,0.85955 -0.6484,1.28101 -0.35662,0.42145 -1.07025,0.86562 -1.58584,0.98705 z m -29.49194,-0.93021 c -0.0945,0 -0.581045,-0.40925 -1.08124,-0.90944 -0.500196,-0.5002 -0.909448,-1.244 -0.909448,-1.65289 0,-0.40888 0.371938,-1.08995 0.826531,-1.51347 0.454589,-0.42351 1.150137,-0.72179 1.545667,-0.66282 0.39552,0.059 0.7936,0.33309 0.88462,0.60922 0.11406,0.34601 -0.0496,0.43499 -0.52675,0.28633 -0.38073,-0.11861 -0.914,-0.0763 -1.18505,0.094 -0.280283,0.17611 -0.440068,0.77166 -0.370514,1.38098 0.09773,0.85614 0.326971,1.09489 1.141214,1.18858 0.56041,0.0644 1.01892,0.25506 1.01892,0.4235 0,0.16845 -0.26374,0.40748 -0.58608,0.53116 -0.32234,0.12365 -0.66338,0.2249 -0.75787,0.2249 z m 4.04858,-3.34776 c -0.36674,-0.007 -1.06528,-0.23399 -1.55231,-0.50394 -0.48702,-0.26993 -1.10636,-0.88926 -1.37629,-1.3763 -0.26994,-0.48702 -0.49671,-1.32919 -0.50393,-1.87148 -0.009,-0.65636 0.36796,-1.30665 1.12684,-1.9452 0.62698,-0.52758 1.33559,-0.9643 1.57469,-0.97049 0.23909,-0.006 0.17559,-0.16294 -0.14112,-0.34831 -0.31671,-0.18538 -1.66641,-0.42786 -2.99933,-0.53884 -1.332917,-0.11091 -3.551944,-0.55032 -4.931165,-0.97631 -2.017862,-0.62325 -2.868087,-1.14069 -4.352863,-2.6491 -1.014851,-1.03099 -2.150155,-2.58601 -2.522892,-3.45557 -0.642656,-1.49925 -0.64566,-1.68371 -0.05812,-3.566242 0.340778,-1.091864 0.971102,-2.578338 1.400725,-3.303269 0.429625,-0.724935 1.532584,-1.933818 2.451021,-2.686409 0.918441,-0.752594 3.603023,-2.364379 5.965738,-3.581751 3.251276,-1.675191 4.952676,-2.31801 6.997106,-2.643626 1.4857,-0.236629 2.93177,-0.550088 3.21349,-0.696582 0.3289,-0.171038 0.005,-0.361557 -0.90583,-0.532383 -0.77992,-0.146312 -2.18801,-0.6562 -3.12909,-1.133079 -0.94108,-0.476882 -1.92777,-1.128188 -2.19265,-1.447351 -0.39665,-0.477935 -0.39255,-0.608864 0.0233,-0.742275 0.27767,-0.08909 1.33853,-0.273391 2.35744,-0.409557 1.01892,-0.136172 1.71556,-0.106932 1.5481,0.06496 -0.16746,0.1719 -0.83439,0.497632 -1.48206,0.723853 l -1.17758,0.411309 1.48206,0.644388 c 0.81513,0.354414 1.98225,0.807146 2.5936,1.006067 0.61135,0.198927 3.33602,0.489025 6.05481,0.644667 3.60999,0.206663 5.03252,0.423977 5.27417,0.805715 0.18199,0.287501 0.33346,0.626093 0.33658,0.752427 0.003,0.126342 -0.75708,0.315672 -1.68933,0.42075 -1.12277,0.126552 -2.15471,0.561478 -3.05675,1.28831 -0.74896,0.603492 -1.91933,2.164838 -2.60082,3.46966 -1.08068,2.06913 -1.21979,2.644191 -1.08821,4.498609 0.11581,1.632271 0.41383,2.489241 1.28284,3.68887 0.62259,0.859459 1.54499,1.700319 2.04979,1.868589 0.75286,0.25096 1.62505,-0.0999 4.85316,-1.952121 2.16444,-1.24192 5.64992,-3.010554 7.74552,-3.930265 2.0956,-0.919716 4.14365,-1.825724 4.55121,-2.013357 0.40757,-0.187629 1.90815,-0.764217 3.33463,-1.281308 1.42649,-0.517088 4.26093,-1.274668 6.29876,-1.683509 2.03784,-0.408842 4.78891,-0.714305 6.1135,-0.678803 2.25094,0.06033 2.55723,-0.03471 4.68624,-1.453982 1.25285,-0.835189 2.78471,-2.133389 3.40417,-2.884887 0.61944,-0.7515 1.63685,-2.40352 2.26091,-3.671156 0.79937,-1.623742 1.13465,-2.842955 1.13465,-4.126024 0,-1.15272 -0.30599,-2.426956 -0.83365,-3.471432 -0.45851,-0.907614 -1.38395,-2.015753 -2.05653,-2.462532 -0.67259,-0.446779 -2.14191,-0.927153 -3.26519,-1.067497 -1.12328,-0.140344 -3.20471,-0.140634 -4.62539,-6.3e-4 -1.42069,0.139995 -3.07757,0.426915 -3.68197,0.637608 -0.60439,0.21068 -1.0989,0.520239 -1.0989,0.687896 0,0.167657 -0.48316,0.41095 -1.07369,0.540653 -0.59053,0.129702 -2.56327,1.116042 -4.38388,2.191866 -1.8206,1.075825 -4.54702,2.878684 -6.05872,4.00635 -1.5117,1.127671 -3.24873,2.593799 -3.86008,3.258067 -0.82987,0.901696 -0.91707,1.107372 -0.34412,0.811631 0.42208,-0.217871 1.75594,-0.724898 2.96412,-1.126725 1.20818,-0.401828 3.28045,-1.066465 4.60504,-1.47697 1.32459,-0.410509 4.57586,-1.279674 7.22504,-1.931481 4.06503,-1.000161 5.56837,-1.192369 9.6334,-1.231673 3.32088,-0.03213 5.07559,0.101302 5.65036,0.429608 0.45851,0.261899 0.83365,0.720411 0.83365,1.018917 0,0.298506 -0.12967,0.542738 -0.28807,0.542738 -0.15845,0 -0.66298,-0.262591 -1.12119,-0.583539 -0.45822,-0.320948 -1.73236,-0.676349 -2.83143,-0.789782 -1.14437,-0.118108 -3.79226,0.06936 -6.19648,0.438722 -2.309,0.354729 -5.44866,0.961625 -6.97704,1.348654 -1.52837,0.387028 -4.02935,1.055222 -5.55773,1.484876 -1.52837,0.42965 -3.94598,1.203792 -5.37246,1.720316 -1.42649,0.516523 -3.03618,1.24735 -3.57709,1.624064 -0.54092,0.37671 -1.16616,0.68493 -1.38943,0.68493 -0.22328,0 -0.40595,-0.163604 -0.40595,-0.363571 0,-0.199964 1.12544,-1.55759 2.50098,-3.016945 1.37553,-1.459359 3.58295,-3.379899 4.90536,-4.267871 1.32242,-0.887969 2.22704,-1.61449 2.01028,-1.61449 -0.21676,0 -1.96567,1.032367 -3.88645,2.294151 -1.92079,1.261783 -4.45105,3.263668 -5.6228,4.448635 -1.17175,1.184969 -2.13046,2.337953 -2.13046,2.562189 0,0.224232 -0.24476,0.313779 -0.54391,0.198982 -0.29915,-0.114789 -0.63327,-0.06412 -0.7425,0.112618 -0.10923,0.176732 -0.44383,0.285341 -0.74356,0.24135 -0.29972,-0.04399 -1.64121,-0.969428 -2.98108,-2.056522 -1.33986,-1.087091 -3.39758,-3.16208 -4.5727,-4.611083 -1.17512,-1.448998 -3.07996,-3.919314 -4.23297,-5.489589 -1.15302,-1.570275 -3.78111,-5.300285 -5.84021,-8.288911 -2.25811,-3.277473 -3.609575,-5.568115 -3.405532,-5.772155 0.20404,-0.204041 0.850062,0.438703 1.627902,1.61964 0.7093,1.076859 2.84857,4.208807 4.75395,6.959881 1.90537,2.751075 4.67134,6.512452 6.1466,8.358614 1.47525,1.846162 3.74031,4.321462 5.03346,5.500663 1.29315,1.179202 2.63596,2.29685 2.98403,2.483668 0.52519,0.281879 0.69419,0.102493 0.9934,-1.054483 0.19831,-0.766781 0.39627,-1.977707 0.43993,-2.690948 0.0437,-0.713242 0.0551,-2.111513 0.0255,-3.107273 l -0.0539,-1.810473 -0.97682,0.976814 c -0.53724,0.537248 -1.10691,0.976812 -1.26592,0.976812 -0.15902,0 -0.36003,-0.208415 -0.4467,-0.463145 -0.0867,-0.254729 0.002,-1.046361 0.19716,-1.759184 0.19511,-0.712822 0.24354,-2.523291 0.10762,-4.023265 -0.13592,-1.499973 -0.51339,-3.392659 -0.83881,-4.205966 l -0.59167,-1.478741 -0.4614,1.09733 c -0.25377,0.603533 -0.84401,1.4538 -1.31167,1.889485 -0.46765,0.435683 -1.11062,0.792152 -1.42881,0.792152 -0.47431,0 -0.57916,-0.517322 -0.58199,-2.871492 -0.002,-1.57932 -0.2331,-3.913566 -0.51377,-5.187211 -0.28068,-1.273645 -0.6261,-2.31572 -0.7676,-2.31572 -0.14151,0 -0.48789,0.4309 -0.76975,0.957555 -0.28186,0.526656 -0.97696,1.288303 -1.54467,1.692549 -0.56771,0.404245 -1.05437,0.681956 -1.08146,0.617134 -0.0271,-0.06482 -0.0756,-1.785178 -0.10769,-3.82301 -0.0321,-2.037833 -0.23893,-4.0218 -0.45954,-4.408817 -0.36322,-0.637199 -0.44156,-0.5811 -0.82934,0.593917 -0.23554,0.713671 -0.82789,1.673032 -1.31635,2.131916 -0.48846,0.458883 -1.06718,0.723659 -1.28605,0.58839 -0.21887,-0.135262 -0.39795,-0.715103 -0.39795,-1.288522 0,-0.573419 -0.34833,-1.830047 -0.77407,-2.792507 -0.42574,-0.96246 -1.38445,-2.426936 -2.13047,-3.254389 -0.74601,-0.827455 -2.023307,-1.808204 -2.83844,-2.179444 -0.815134,-0.371239 -2.020563,-0.678643 -2.678735,-0.683118 -0.658172,-0.0045 -1.908661,-0.284099 -2.778863,-0.621386 -0.870204,-0.337287 -1.900147,-0.879165 -2.288759,-1.204174 -0.669552,-0.559968 -0.693062,-0.542401 -0.448722,0.335362 0.141814,0.509458 0.358817,1.48221 0.482225,2.161669 0.123415,0.679459 0.0018,2.415061 -0.270265,3.856892 -0.436748,2.314681 -0.42155,2.900192 0.129843,5.00252 0.343472,1.309555 1.00048,2.858417 1.460019,3.441916 0.459538,0.583499 1.16899,1.186248 1.576556,1.339445 0.407567,0.153196 0.857743,0.286736 1.000391,0.296752 0.142649,0.01008 0.438368,0.197222 0.657156,0.416009 0.283385,0.283385 0.192858,0.583262 -0.314749,1.042639 -0.391896,0.354663 -1.252074,0.660184 -1.911498,0.678932 l -1.198953,0.0341 1.810115,1.589861 c 0.995562,0.874425 2.226943,1.749806 2.736401,1.945292 0.509458,0.195486 1.215257,0.448112 1.568444,0.561392 0.387398,0.124255 0.556946,0.428013 0.427369,0.765682 -0.118135,0.307847 -0.781152,0.665972 -1.473379,0.795834 -0.692226,0.129857 -1.676518,0.131215 -2.187317,0.0029 -0.510796,-0.12819 -0.928722,-0.139855 -0.928722,-0.02592 0,0.113934 0.708611,0.883332 1.574689,1.709768 0.86608,0.826435 2.324983,1.933419 3.242007,2.459965 0.917027,0.526545 1.959097,1.253942 2.315717,1.616435 0.35662,0.362493 0.6484,0.728576 0.6484,0.813517 0,0.08493 -0.50026,0.254488 -1.1117,0.376777 -0.61144,0.12228 -1.570147,0.06012 -2.130462,-0.138147 -0.974414,-0.34479 -0.962654,-0.31191 0.270124,0.755337 0.708888,0.613699 2.174048,1.446995 3.255908,1.851771 1.08186,0.404777 2.28439,0.735958 2.67229,0.735958 0.38789,0 0.80831,0.166732 0.93425,0.370515 0.13736,0.222257 -0.33572,0.370397 -1.1823,0.370222 -0.80051,-1.67e-4 -2.37343,-0.466327 -3.63439,-1.077113 -1.222703,-0.592254 -2.653691,-1.467462 -3.179979,-1.944911 -0.526287,-0.47745 -1.25748,-1.331806 -1.62488,-1.898571 -0.367395,-0.566764 -0.570744,-1.127728 -0.451883,-1.246588 0.118863,-0.118863 0.94438,0.136439 1.834487,0.567336 0.89011,0.430894 1.857518,0.78188 2.149798,0.779967 0.292287,-0.002 -0.315366,-0.489174 -1.350334,-1.082804 -1.034967,-0.593631 -2.747166,-2.026221 -3.804886,-3.183534 -1.057718,-1.157312 -2.087108,-2.410615 -2.287539,-2.785117 -0.244065,-0.456044 -0.236359,-0.760055 0.02334,-0.920556 0.213262,-0.131803 0.58886,-0.07589 0.83466,0.124255 0.245803,0.20014 1.07216,0.534518 1.836347,0.743062 0.764187,0.208543 1.389431,0.257234 1.389431,0.108192 0,-0.149033 -0.541878,-0.667292 -1.204174,-1.151687 -0.662291,-0.484354 -1.996064,-1.557782 -2.963936,-2.385358 -0.96787,-0.827574 -1.759846,-1.796462 -1.759947,-2.153082 -9.9e-5,-0.356621 0.15671,-0.648401 0.348466,-0.648401 0.191757,0 0.451696,0.166732 0.577641,0.370514 0.125949,0.203784 0.844396,0.368666 1.596557,0.366408 l 1.367564,-0.0041 -1.204393,-0.949205 c -0.662418,-0.522064 -1.662808,-1.729021 -2.22309,-2.682127 -0.987363,-1.67962 -1.019009,-1.903864 -1.028791,-7.290648 -0.0081,-4.449706 -0.150559,-5.981571 -0.71465,-7.683692 -0.387507,-1.169282 -0.58139,-2.249134 -0.430854,-2.399668 0.150537,-0.150536 0.805594,0.334878 1.455681,1.078699 0.650087,0.743821 1.698559,1.606458 2.329939,1.916971 0.631376,0.310513 2.298694,0.766184 3.705151,1.012603 1.406454,0.24642 3.094243,0.76603 3.750644,1.154693 0.6564,0.38866 1.82352,1.429669 2.5936,2.313351 0.77009,0.883683 1.70562,2.415335 2.07895,3.403673 0.37334,0.988337 0.80551,2.127018 0.96038,2.530402 0.26965,0.702343 0.30168,0.695868 0.75587,-0.152797 0.26086,-0.487422 0.52088,-1.626364 0.57782,-2.530982 0.0569,-0.904618 0.27286,-1.814095 0.47983,-2.021059 0.25472,-0.254723 0.70302,0.326043 1.38756,1.797557 0.81859,1.759696 1.01392,2.717058 1.02525,5.025032 0.008,1.568146 0.15119,2.76638 0.31888,2.662739 0.1677,-0.103642 0.56587,-0.693107 0.88485,-1.309928 0.31897,-0.61682 0.49994,-1.329978 0.40215,-1.584794 -0.0978,-0.254816 -0.0451,-0.677958 0.11703,-0.940315 0.16215,-0.262357 0.46719,-0.370475 0.67788,-0.240262 0.21069,0.130207 0.71664,1.277014 1.12433,2.548445 0.40769,1.271433 0.87176,3.312086 1.03127,4.534786 0.1595,1.2227 0.25362,2.876752 0.20915,3.67567 l -0.0808,1.452581 0.91301,-1.062532 c 0.50215,-0.584392 0.9628,-1.558676 1.02366,-2.165075 0.0609,-0.606401 0.32154,-1.171791 0.57931,-1.256424 0.27942,-0.09174 0.87746,0.719619 1.48102,2.009299 0.85571,1.828474 1.03232,2.75966 1.14139,6.01822 0.0816,2.439061 0.25007,3.663894 0.45852,3.334636 0.18121,-0.286223 0.33202,-0.895552 0.33514,-1.354065 0.003,-0.475611 0.23463,-0.833658 0.53875,-0.833658 0.34793,0 0.63451,0.611223 0.82517,1.759947 0.16065,0.967969 0.29592,2.843703 0.30059,4.168294 0.005,1.324591 -0.12188,3.021661 -0.28122,3.771266 l -0.2897,1.362918 2.51279,-2.499003 c 1.38204,-1.374448 3.76328,-3.310244 5.29166,-4.301769 1.52837,-0.991524 4.19608,-2.518931 5.92824,-3.394235 1.73215,-0.875302 3.40781,-1.595283 3.72368,-1.599954 0.31586,-0.0046 0.73268,-0.149322 0.92629,-0.321445 0.19358,-0.172121 1.35238,-0.662719 2.57507,-1.090216 1.22271,-0.427497 3.10664,-0.953597 4.18654,-1.169112 1.07988,-0.215513 2.86599,-0.391843 3.96913,-0.391843 1.11937,0 2.90913,0.338021 4.05016,0.764929 1.31921,0.493588 2.43296,1.236271 3.13971,2.09367 0.60238,0.730808 1.29306,2.153278 1.53482,3.161044 0.24175,1.007765 0.33906,2.565563 0.21622,3.461769 -0.12281,0.896205 -0.6632,2.505834 -1.20081,3.576956 -0.53761,1.071123 -1.54697,2.649371 -2.24304,3.507225 -0.69607,0.857854 -2.27766,2.184428 -3.51465,2.947942 -2.20478,1.360865 -2.2454,1.415604 -2.06248,2.779325 0.11063,0.824509 0.0126,1.526297 -0.23936,1.723 -0.23426,0.18253 -1.50969,0.538528 -2.83429,0.791105 -1.32459,0.252573 -4.82597,1.26306 -7.78082,2.245522 -2.95486,0.982462 -7.08087,2.508726 -9.16892,3.391688 -2.08805,0.882961 -3.79705,1.758991 -3.79778,1.946731 -7.4e-4,0.18773 -0.27164,0.64004 -0.60203,1.00511 -0.33039,0.36508 -0.50236,0.92009 -0.38215,1.23335 0.12021,0.31327 0.62145,0.56958 1.11387,0.56958 0.55592,0 1.13521,-0.36615 1.52819,-0.96591 0.4673,-0.7132 0.74149,-0.85727 1.04805,-0.55071 0.30656,0.30655 0.16205,0.6683 -0.55237,1.38273 -0.56517,0.56516 -1.38352,0.96754 -1.96776,0.96754 -0.55011,0 -1.35638,-0.35618 -1.79172,-0.79152 -0.67161,-0.6716 -0.72181,-0.90317 -0.33136,-1.52838 0.2531,-0.40527 0.35075,-0.73685 0.21701,-0.73685 -0.13374,0 -2.17762,1.03103 -4.54195,2.29117 -2.36433,1.26015 -5.46591,2.90085 -6.89239,3.64603 -1.42649,0.74518 -3.44877,1.80522 -4.49396,2.35565 -1.29593,0.68248 -2.23844,0.93949 -2.96333,0.80803 -0.58463,-0.10601 -1.27174,-0.47827 -1.52691,-0.82723 -0.25517,-0.34895 -0.46394,-0.43586 -0.46394,-0.19313 0,0.24272 -0.30011,0.44132 -0.66692,0.44132 -0.36681,0 -0.86701,0.20009 -1.11155,0.44462 -0.24454,0.24455 -0.44462,0.91905 -0.44462,1.4989 0,0.62535 0.37001,1.42431 0.90945,1.96373 0.5002,0.5002 1.26331,0.90946 1.69582,0.90946 0.4325,0 1.28472,-0.49835 1.89382,-1.10744 0.60909,-0.60911 1.01038,-1.26451 0.89174,-1.45647 -0.11864,-0.19195 -0.0578,-0.44663 0.13526,-0.56591 0.19303,-0.11931 0.45266,-0.0524 0.57696,0.14876 0.12429,0.20114 -0.0337,0.86795 -0.35119,1.48185 -0.31745,0.61388 -1.06628,1.36906 -1.66406,1.67819 -0.59778,0.30912 -1.38693,0.55613 -1.75367,0.54892 z m -3.09899,-8.59005 c 2.50305,-0.0126 3.02829,-0.15559 5.74298,-1.57108 1.64338,-0.85688 3.83671,-2.08406 4.87406,-2.72705 l 1.88609,-1.16907 -1.54274,-1.61011 c -0.9927,-1.036024 -1.7206,-2.245301 -2.04155,-3.391643 -0.40332,-1.440492 -0.41165,-2.108428 -0.0435,-3.489074 0.2504,-0.939144 0.82055,-2.440947 1.267,-3.33734 0.44645,-0.896395 1.37163,-2.189912 2.05595,-2.874483 0.68432,-0.684571 1.64302,-1.344774 2.13046,-1.467111 0.48743,-0.122336 0.88624,-0.349891 0.88624,-0.505674 0,-0.155787 -0.99649,-0.233607 -2.21442,-0.172935 -1.56302,0.07786 -2.78919,0.417245 -4.1683,1.153695 -1.07463,0.573862 -2.96192,2.045292 -4.19399,3.269848 -1.23207,1.224557 -2.55116,2.891948 -2.93131,3.705318 -0.48243,1.032193 -0.70109,2.382635 -0.724,4.47121 -0.0298,2.711829 0.0618,3.116719 0.97603,4.318849 0.55487,0.72955 1.79647,1.70774 2.75912,2.17375 0.96265,0.46602 1.54359,0.91618 1.29098,1.0004 -0.25262,0.0842 -0.86591,0.0511 -1.36289,-0.0737 -0.49698,-0.12477 -1.49873,-0.74933 -2.22612,-1.38798 -0.72739,-0.63867 -1.54575,-1.59497 -1.81859,-2.12512 -0.27283,-0.53015 -0.57547,-1.55958 -0.67252,-2.287619 -0.097,-0.72804 0.0593,-2.47872 0.34735,-3.890406 0.2881,-1.411684 0.9622,-3.23363 1.49802,-4.048763 0.53582,-0.815133 1.4718,-1.982256 2.07998,-2.593605 0.60817,-0.611351 1.62075,-1.505696 2.25017,-1.987436 l 1.14442,-0.875891 -2.03338,0.251947 c -1.11836,0.138566 -2.61895,0.512119 -3.33464,0.830102 -0.71569,0.317987 -2.82197,1.309886 -4.680633,2.204217 -1.858659,0.894335 -4.053324,2.114259 -4.877027,2.710951 -0.823707,0.596689 -1.986121,1.802983 -2.583143,2.680651 -0.597022,0.877669 -1.280822,2.387493 -1.519556,3.355167 -0.351996,1.426769 -0.334812,1.996945 0.09091,3.015825 0.28873,0.69104 1.155039,1.95384 1.925129,2.80624 0.770086,0.8524 2.034188,1.87327 2.809109,2.26861 0.774925,0.39533 2.036785,0.86811 2.80414,1.0506 0.767352,0.1825 2.634944,0.32593 4.150201,0.3187 z m 16.86041,-2.51228 c 0.0899,0 0.26644,-0.16673 0.39239,-0.37051 0.12595,-0.20378 0.0524,-0.37051 -0.16339,-0.37051 -0.21581,0 -0.39239,0.16673 -0.39239,0.37051 0,0.20378 0.0735,0.37051 0.16339,0.37051 z m 1.19354,-1.01891 c 0.10279,-0.25473 0.10279,-0.67156 0,-0.92629 -0.10278,-0.25473 -0.18688,-0.0464 -0.18688,0.46314 0,0.50946 0.0841,0.71788 0.18688,0.46315 z m 1.85258,-3.33464 c 0.10279,-0.25472 0.10279,-0.67156 0,-0.926286 -0.10279,-0.254728 -0.18689,-0.04635 -0.18689,0.463146 0,0.50945 0.0841,0.71787 0.18689,0.46314 z m 55.84391,15.43975 c -0.79107,-0.0161 -1.68543,-0.12631 -1.98748,-0.2448 -0.30203,-0.11861 -0.76054,-0.42694 -1.01891,-0.68531 -0.25837,-0.25837 -0.46975,-0.73177 -0.46975,-1.052 0,-0.32023 0.0758,-0.58224 0.1684,-0.58224 0.0926,0 0.58525,0.41684 1.0947,0.92629 0.58848,0.58847 1.34397,0.92629 2.07153,0.92629 0.72189,0 1.4814,-0.33617 2.05467,-0.90945 0.58082,-0.58082 0.90944,-1.33138 0.90944,-2.07713 0,-0.81288 -0.2895,-1.39542 -0.95271,-1.9171 -0.66404,-0.52234 -0.8351,-0.86703 -0.56452,-1.13759 0.27057,-0.27057 0.61248,-0.1852 1.12848,0.28177 0.69237,0.62659 0.80048,0.63051 1.67018,0.0606 0.51144,-0.33511 1.03389,-1.02365 1.161,-1.53006 0.12716,-0.50643 0.135,-1.17125 0.0175,-1.47738 -0.11749,-0.30614 -0.63566,-0.55661 -1.15151,-0.55661 -0.51586,0 -0.93792,-0.17729 -0.93792,-0.39398 0,-0.22077 0.52439,-0.34295 1.19262,-0.27789 0.8299,0.0808 1.35706,0.41052 1.73332,1.08417 0.43821,0.78453 0.45655,1.17127 0.0968,2.03978 -0.24416,0.58945 -0.90508,1.38166 -1.46873,1.76049 -0.83507,0.56124 -0.99904,0.90961 -0.88556,1.88154 0.11175,0.95675 -0.11427,1.46156 -1.14201,2.55128 -1.0649,1.12912 -1.52413,1.35359 -2.71956,1.32927 z m -59.14005,-1.10171 -0.83966,-0.0195 0.83366,-0.58154 c 0.54182,-0.37794 0.83366,-0.96072 0.83366,-1.66472 0,-0.65604 -0.35864,-1.44183 -0.90945,-1.99264 -0.63083,-0.63086 -1.32061,-0.90946 -2.25158,-0.90946 -0.98941,0 -1.6268,0.28464 -2.42519,1.08305 -0.72774,0.72772 -1.08305,1.45704 -1.08305,2.22309 0,0.62702 -0.18841,1.14004 -0.4187,1.14004 -0.27763,0 -0.35481,-0.56686 -0.22908,-1.68235 0.1043,-0.9253 0.47961,-2.00278 0.83402,-2.3944 0.35442,-0.39163 1.21665,-0.90091 1.91607,-1.13174 0.69943,-0.23083 1.72134,-0.30749 2.27092,-0.17034 0.54958,0.1371 1.29102,0.5123 1.64764,0.83369 0.59506,0.53624 0.64908,0.52626 0.65664,-0.12156 0.004,-0.38821 0.29632,-1.06536 0.64841,-1.50479 0.35208,-0.43943 1.22372,-1.14741 1.93696,-1.57331 0.71324,-0.42588 1.55671,-0.77496 1.87439,-0.77572 0.31767,-7.4e-4 0.88502,0.22341 1.26078,0.49818 0.39964,0.29222 0.56754,0.68669 0.40455,0.95042 -0.21442,0.34694 -0.41963,0.3305 -0.89027,-0.0713 -0.34843,-0.29748 -0.96001,-0.42744 -1.42122,-0.30203 -0.44528,0.12113 -1.23726,0.59419 -1.75995,1.05137 -0.6199,0.54218 -0.95034,1.21353 -0.95034,1.93076 0,0.654 0.32858,1.40568 0.81089,1.85503 0.446,0.41551 1.1835,0.75546 1.6389,0.75546 0.45539,0 1.34098,-0.43165 1.96796,-0.95922 1.0053,-0.8459 1.1397,-0.87874 1.13763,-0.27788 -0.001,0.37472 -0.51499,0.9731 -1.14157,1.32974 -0.62658,0.35662 -1.55351,0.6484 -2.05985,0.6484 -0.50634,0 -1.21629,-0.15825 -1.57767,-0.35165 -0.5384,-0.28814 -0.76708,-0.12085 -1.26645,0.92629 -0.43685,0.9161 -0.84714,1.27242 -1.44905,1.2585 z m 25.4938,-1.54982 c -0.69894,0.0578 -1.3491,-0.25175 -2.09487,-0.99752 -0.83777,-0.83776 -1.08138,-1.41843 -1.08138,-2.57751 0,-1.06197 0.2353,-1.71536 0.81088,-2.25159 0.44599,-0.41552 0.91841,-0.75547 1.04979,-0.75547 0.13136,0 0.34441,0.10545 0.47336,0.23445 0.12897,0.12898 -0.17673,0.55787 -0.67928,0.95318 -0.5711,0.44922 -0.91064,1.09072 -0.90548,1.71075 0.004,0.54561 0.2963,1.343 0.6484,1.77197 0.35208,0.42897 0.89026,0.86557 1.19593,0.97024 0.30567,0.1046 0.94869,0.0443 1.42892,-0.13416 0.68795,-0.25568 0.82624,-0.51144 0.65196,-1.20583 -0.16849,-0.67131 -0.0487,-0.92645 0.50265,-1.07063 0.39813,-0.10404 0.91713,0.0435 1.15336,0.32822 0.23623,0.28466 0.88344,0.51754 1.43827,0.51754 0.55481,0 1.27308,-0.29209 1.59616,-0.64909 0.32306,-0.357 0.76517,-1.11666 0.98245,-1.68813 0.30585,-0.80446 0.26833,-1.28413 -0.16621,-2.12442 -0.30869,-0.59695 -0.97722,-1.18976 -1.48561,-1.31736 -0.53173,-0.13346 -1.1622,-0.0346 -1.48428,0.23268 -0.30796,0.25559 -0.68068,0.34394 -0.82826,0.19635 -0.1476,-0.14759 0.055,-0.50482 0.45028,-0.79383 0.39525,-0.28901 0.97854,-0.52486 1.29622,-0.52409 0.31767,7.4e-4 1.11042,0.32627 1.76165,0.72335 0.86053,0.52471 1.2545,1.09735 1.44178,2.0957 0.18394,0.98047 0.0791,1.70526 -0.366,2.53189 -0.34303,0.63698 -0.96906,1.37383 -1.39113,1.63742 -0.42208,0.26361 -1.10573,0.54443 -1.51923,0.62405 -0.41349,0.0797 -1.00886,0.001 -1.32303,-0.17489 -0.40452,-0.22637 -0.85913,-0.0318 -1.55754,0.66662 -0.54246,0.54246 -1.44235,1.02403 -1.99976,1.07016 z m 11.90454,-0.66563 c -1.05504,0.008 -1.63446,-0.23353 -2.31572,-0.96861 -0.57079,-0.6159 -0.9086,-1.42107 -0.9086,-2.16566 0,-0.67772 0.29014,-1.44786 0.67759,-1.79847 0.37266,-0.33727 0.95623,-0.61321 1.2968,-0.61321 0.34057,0 0.61923,0.16674 0.61923,0.37053 0,0.20378 -0.25547,0.37051 -0.56771,0.37051 -0.31226,0 -0.70779,0.37514 -0.879,0.83365 -0.17592,0.47113 -0.16064,1.2332 0.0351,1.75241 0.19052,0.50531 0.54439,1.04464 0.78636,1.1985 0.24199,0.15387 0.87264,0.28231 1.40147,0.28544 0.5288,0.003 1.23742,-0.29925 1.57467,-0.67192 0.33727,-0.37266 0.61321,-0.92287 0.61321,-1.22269 0,-0.29982 -0.20009,-0.74521 -0.44462,-0.98974 -0.34582,-0.34582 -0.31473,-0.44462 0.1399,-0.44462 0.32148,0 0.77524,0.22982 1.00835,0.5107 0.30699,0.3699 0.31549,0.79572 0.0308,1.5445 -0.21618,0.56858 -0.67827,1.25049 -1.02688,1.51534 -0.34861,0.26486 -1.26704,0.48686 -2.04096,0.49334 z m 13.51073,-0.35873 c -0.59041,0 -1.49344,-0.33034 -2.00672,-0.73409 -0.87665,-0.68957 -1.00484,-0.69838 -2.11383,-0.14514 -1.1282,0.56283 -1.22055,0.55143 -2.08086,-0.25678 -0.59551,-0.55945 -0.90024,-1.25374 -0.90024,-2.05106 0,-0.86083 0.27902,-1.42482 0.97625,-1.97325 0.53695,-0.42236 1.20387,-0.76792 1.48206,-0.76792 0.2782,0 0.50581,0.13542 0.50581,0.30083 0,0.16547 -0.5002,0.67065 -1.11154,1.12263 -0.61136,0.452 -1.11155,1.12445 -1.11155,1.49433 0,0.36988 0.31184,0.95473 0.69298,1.29965 0.57919,0.52415 0.85299,0.55424 1.66732,0.18322 0.69562,-0.31695 0.97434,-0.72506 0.97434,-1.42669 0,-0.59309 0.41204,-1.37753 1.03919,-1.97836 0.57154,-0.54759 1.23847,-0.99561 1.48205,-0.99561 0.24358,0 0.44287,0.0941 0.44287,0.20917 0,0.11511 -0.5002,0.63007 -1.11155,1.14449 -0.63882,0.53753 -1.11154,1.29593 -1.11154,1.78329 0,0.46639 0.27115,1.07302 0.60258,1.34806 0.33141,0.27505 1.20676,0.49732 1.9452,0.49393 0.73844,-0.003 1.81583,-0.32018 2.3942,-0.70398 0.83415,-0.55356 1.0198,-0.91443 0.89784,-1.74537 -0.0993,-0.67658 0.0112,-1.04753 0.31288,-1.04753 0.25665,0 0.57506,0.34162 0.7076,0.75917 0.14335,0.45171 -0.008,1.13949 -0.37438,1.69827 -0.33841,0.5165 -1.18056,1.17526 -1.8714,1.46392 -0.69085,0.28864 -1.73915,0.52482 -2.32956,0.52482 z m -40.37995,-5.21007 c -0.43913,0.7221 -0.82723,1.03428 -0.9795,0.78792 -0.13871,-0.22444 0.10475,-0.9856 0.541,-1.69147 0.43626,-0.70589 1.23995,-1.59678 1.78599,-1.97975 0.54604,-0.38299 1.61806,-0.81035 2.38227,-0.94972 1.17856,-0.21493 1.53007,-0.11273 2.31572,0.67285 0.50943,0.50944 0.92624,1.19488 0.92624,1.52323 0,0.32833 -0.17055,0.91565 -0.37901,1.30515 -0.20844,0.3895 -0.71209,0.88645 -1.11919,1.10432 -0.40711,0.21788 -0.91824,0.28611 -1.13583,0.15163 -0.23451,-0.14494 -0.0428,-0.41976 0.4708,-0.67481 0.47653,-0.23667 0.92091,-0.81045 0.9875,-1.27508 0.0666,-0.46463 -0.0789,-1.0857 -0.32325,-1.38015 -0.24438,-0.29446 -0.8517,-0.53538 -1.34961,-0.53538 -0.4979,0 -1.26602,0.19305 -1.70693,0.42903 -0.44091,0.23596 -1.00128,0.62866 -1.24527,0.87264 -0.24399,0.24399 -0.77091,0.9818 -1.17093,1.63959 z m 29.4501,-0.34766 c -0.49377,0 -1.10867,-0.25413 -1.36645,-0.56473 -0.25777,-0.3106 -0.35398,-0.67943 -0.21377,-0.81964 0.1402,-0.14019 0.58463,-0.049 0.98762,0.20269 0.50992,0.31846 0.94218,0.34549 1.42162,0.0889 0.3789,-0.20277 0.78665,-0.62341 0.90613,-0.93476 0.11945,-0.31133 0.12127,-0.81616 0.004,-1.12184 -0.11735,-0.30567 -0.36217,-0.55576 -0.54415,-0.55576 -0.18199,0 -0.33089,-0.16674 -0.33089,-0.37053 0,-0.20378 0.24424,-0.37051 0.54274,-0.37051 0.29851,0 0.71534,0.32251 0.92629,0.71667 0.21095,0.39418 0.38355,0.98532 0.38355,1.31365 0,0.32833 -0.40926,1.00622 -0.90944,1.50642 -0.5002,0.50019 -1.31345,0.90944 -1.80721,0.90944 z m -4.62515,-0.7465 c -0.34334,-0.003 -1.0411,-0.21528 -1.55056,-0.47173 -0.62545,-0.31483 -0.9591,-0.82448 -1.02731,-1.56922 -0.0966,-1.05569 -0.0774,-1.07119 0.45051,-0.36193 0.30334,0.40756 0.73052,0.94945 0.94929,1.20418 0.21876,0.25473 0.77657,0.46314 1.23958,0.46314 0.46299,0 1.21587,-0.34849 1.67308,-0.77444 0.62682,-0.58397 0.80347,-1.10795 0.71826,-2.13046 -0.091,-1.09317 -0.27874,-1.37952 -0.96802,-1.47722 -0.47026,-0.0667 -0.7933,-0.30634 -0.71787,-0.53262 0.0755,-0.22627 0.30693,-0.46802 0.51447,-0.53718 0.20752,-0.0692 0.82234,0.22428 1.36627,0.65212 0.59607,0.46887 0.98896,1.14254 0.98896,1.69571 0,0.50479 -0.25809,1.41688 -0.57353,2.02686 -0.31543,0.60999 -0.99321,1.26864 -1.50618,1.46367 -0.51297,0.19503 -1.21359,0.35213 -1.55695,0.34912 z m 12.45047,-0.0982 c -1.25171,0.14109 -1.72863,0.0269 -2.23813,-0.53613 -0.3561,-0.39349 -0.64745,-1.21834 -0.64745,-1.833 0,-0.61467 0.30491,-1.39351 0.67757,-1.73078 0.37267,-0.33725 0.87287,-0.61319 1.11155,-0.61319 0.23868,0 0.43397,0.0903 0.43397,0.20074 0,0.11049 -0.33347,0.55869 -0.74103,0.99616 -0.40757,0.43747 -0.74102,1.06408 -0.74102,1.39247 0,0.32837 0.20007,0.79713 0.44462,1.04168 0.24453,0.24453 0.89866,0.44462 1.45362,0.44462 0.55496,0 1.52201,-0.43165 2.14899,-0.95923 0.94663,-0.79654 1.13997,-1.22871 1.13997,-2.54824 0,-0.97986 -0.21907,-1.77083 -0.57148,-2.0633 -0.41781,-0.346755 -0.46092,-0.583096 -0.16031,-0.879023 0.29828,-0.293616 0.55562,-0.209033 0.93728,0.308026 0.28936,0.392034 0.62636,1.247117 0.74888,1.900197 0.13765,0.73393 0.0126,1.5941 -0.32787,2.25223 -0.30285,0.58563 -0.89439,1.37591 -1.31456,1.75613 -0.42015,0.38025 -1.47973,0.77204 -2.3546,0.87064 z m 7.18334,-0.26692 c -0.35263,0 -1.01172,-0.25956 -1.46462,-0.57679 -0.53715,-0.37622 -0.82348,-0.96002 -0.82348,-1.67894 0,-0.6516 0.23374,-1.19186 0.57176,-1.32156 0.31445,-0.12072 0.67849,-0.11273 0.80895,0.0178 0.13052,0.13051 0.0399,0.43449 -0.20125,0.67563 -0.24113,0.24115 -0.43842,0.64934 -0.43842,0.90708 0,0.25775 0.32254,0.64126 0.71676,0.85224 0.48742,0.26086 1.0324,0.26361 1.70318,0.008 0.54251,-0.20626 1.07307,-0.70647 1.17901,-1.11159 0.10601,-0.40511 0.31212,-0.73657 0.45816,-0.73657 0.14606,0 0.36555,0.1 0.48778,0.22223 0.12225,0.12225 0.0483,0.60402 -0.16436,1.07068 -0.21262,0.46666 -0.79288,1.03359 -1.28945,1.25983 -0.49657,0.22626 -1.19138,0.41138 -1.54402,0.41138 z m -35.4658,-0.74103 c -0.32789,0 -1.10306,-0.50687 -1.72257,-1.12639 -0.94136,-0.94135 -1.08789,-1.31883 -0.89209,-2.2979 0.12883,-0.64434 0.58101,-1.54058 1.00477,-1.99165 0.42376,-0.45106 1.19117,-0.925702 1.70534,-1.054761 0.51418,-0.129114 1.00159,-0.167918 1.08312,-0.0864 0.0815,0.0815 -0.5217,0.612523 -1.34052,1.179968 -1.11775,0.774603 -1.48878,1.281873 -1.48878,2.035453 0,0.55206 0.30492,1.27968 0.67759,1.61693 0.37266,0.33726 1.19647,0.61319 1.8307,0.61319 0.63423,0 1.25618,-0.16673 1.38213,-0.37051 0.12589,-0.20378 0.38588,-0.37051 0.57764,-0.37051 0.19175,0 0.34865,0.17523 0.34865,0.38942 0,0.21418 -0.57822,0.631 -1.2849,0.92629 -0.70671,0.29526 -1.55319,0.53686 -1.88108,0.53686 z m 43.73737,-0.6253 c -0.40756,0.11049 -1.11616,0.0517 -1.57469,-0.13079 -0.45851,-0.18241 -0.83365,-0.48788 -0.83365,-0.67885 0,-0.19095 0.64423,-0.26077 1.43163,-0.15517 1.20147,0.16115 1.52906,0.0529 2.03782,-0.67347 0.33343,-0.47603 0.60622,-0.99513 0.60622,-1.15357 0,-0.15844 -0.33347,-0.62152 -0.74104,-1.0291 -0.46341,-0.46341 -1.23504,-0.74102 -2.05969,-0.74102 -0.78477,0 -1.22596,-0.150025 -1.08969,-0.370528 0.1259,-0.203782 0.8103,-0.37051 1.52078,-0.37051 0.8775,0 1.58344,0.291669 2.20122,0.909438 0.5002,0.5002 0.90945,1.3048 0.90945,1.788 0,0.4832 -0.37514,1.22191 -0.83367,1.64157 -0.45851,0.41967 -1.16711,0.85344 -1.57469,0.96393 z m -35.98155,-0.70696 c -0.58848,0.098 -1.57015,-0.0801 -2.1815,-0.39595 -0.61134,-0.31587 -1.31996,-0.83839 -1.57469,-1.16118 -0.25472,-0.32279 -0.46314,-0.94599 -0.46314,-1.38493 0,-0.43891 0.3406,-1.106275 0.75689,-1.483017 0.75275,-0.681225 0.75557,-0.676758 0.5162,0.820157 -0.20846,1.30365 -0.12519,1.58602 0.62237,2.1096 0.47467,0.33247 1.40019,0.60449 2.05672,0.60449 0.72171,0 1.59745,-0.34728 2.21476,-0.87827 0.77749,-0.66877 1.02106,-1.21044 1.02106,-2.270833 0,-0.987724 -0.23698,-1.584437 -0.81513,-2.052609 -0.44833,-0.363019 -0.81515,-0.758373 -0.81515,-0.878546 0,-0.12018 0.238,-0.218496 0.52888,-0.218496 0.29089,0 0.87445,0.439317 1.29682,0.97626 0.42235,0.53693 0.76792,1.514838 0.76792,2.173125 0,0.658269 -0.3464,1.637229 -0.76977,2.175459 -0.42338,0.53822 -1.06734,1.13785 -1.43103,1.33249 -0.3637,0.19465 -1.14274,0.43415 -1.73121,0.53225 z m 30.23857,-2.96364 c -0.50945,0.11442 -1.46944,-0.0318 -2.13328,-0.32492 -0.67687,-0.2989 -1.37199,-0.966946 -1.58265,-1.521045 -0.26506,-0.697147 -0.25187,-1.137214 0.0448,-1.494687 0.23126,-0.278637 0.55265,-0.424924 0.71422,-0.325069 0.16156,0.09985 0.21308,0.48999 0.11455,0.866971 -0.0986,0.37698 0.0957,0.960375 0.43177,1.296436 0.33606,0.336047 1.16018,0.611014 1.83137,0.611014 0.6736,0 1.65779,-0.344075 2.19664,-0.767926 0.53693,-0.422366 0.97626,-1.079448 0.97626,-1.460196 0,-0.380747 -0.16675,-0.795318 -0.37053,-0.921264 -0.20378,-0.125949 -0.37051,-0.385885 -0.37051,-0.577641 0,-0.191757 0.16289,-0.348647 0.36197,-0.348647 0.19909,0 0.62975,0.408667 0.95701,0.908148 0.34213,0.522151 0.49512,1.222994 0.35994,1.648917 -0.12939,0.407424 -0.7684,1.06952 -1.42016,1.471329 -0.65177,0.40179 -1.60188,0.82416 -2.11134,0.93858 z m -15.98462,-1.026341 c -1.04317,0.169291 -1.51493,0.0154 -2.50403,-0.816893 -0.67029,-0.564 -1.3471,-1.372533 -1.50402,-1.796718 -0.15693,-0.424187 -0.12702,-1.11884 0.0667,-1.543673 0.19355,-0.424833 0.82194,-1.050077 1.39643,-1.389432 0.57447,-0.339355 1.47729,-0.617008 2.00626,-0.617008 0.52896,0 0.96174,0.166732 0.96174,0.370516 0,0.203782 -0.42439,0.370515 -0.94312,0.370515 -0.51873,0 -1.35238,0.409253 -1.85258,0.909447 -0.5002,0.500196 -0.90944,1.061271 -0.90944,1.246836 0,0.185562 0.34555,0.776702 0.76792,1.313647 0.56954,0.724048 1.10457,0.976255 2.07107,0.976255 0.88888,0 1.53438,-0.26502 2.03052,-0.833669 l 0.72738,-0.833653 -0.24649,0.926287 c -0.13556,0.509456 -0.36718,1.057393 -0.51469,1.217624 -0.14753,0.160244 -0.84663,0.3852 -1.55355,0.499919 z m -7.85618,-0.605997 c -0.75285,0 -1.49282,-0.280075 -1.88505,-0.713462 -0.35512,-0.392398 -0.58822,-1.011783 -0.518,-1.376402 0.0703,-0.364618 0.7059,-1.052608 1.41264,-1.528876 0.89191,-0.60106 1.57113,-0.795922 2.22053,-0.637049 0.51455,0.12588 1.17572,0.464042 1.46927,0.751457 0.29354,0.287412 0.44015,0.616144 0.32576,0.730519 -0.11441,0.114369 -0.63403,0.01386 -1.15478,-0.223461 -0.52077,-0.237275 -1.36486,-0.326494 -1.87577,-0.198266 -0.5109,0.128232 -1.03415,0.564728 -1.16279,0.969997 -0.12855,0.405269 -0.12995,0.905076 -0.003,1.110678 0.12701,0.205603 0.72139,0.37383 1.32072,0.37383 0.59932,0 1.08967,0.166742 1.08967,0.370524 0,0.203782 -0.55772,0.370511 -1.23937,0.370511 z m 14.4972,-0.746497 c -0.26127,-0.0028 -0.89187,-0.215587 -1.40133,-0.472415 -0.50947,-0.256829 -0.97957,-0.837928 -1.04469,-1.291339 -0.0651,-0.45341 0.0405,-0.824385 0.23468,-0.824385 0.19419,0 0.43828,0.325872 0.54243,0.724157 0.10419,0.398288 0.6115,0.830102 1.12744,0.959594 0.52136,0.130935 1.39901,0.01456 1.97569,-0.26187 0.57069,-0.273525 1.19419,-0.94252 1.38555,-1.486658 0.26316,-0.748308 0.19548,-1.222007 -0.27782,-1.944341 -0.3937,-0.600872 -0.96604,-0.955002 -1.54347,-0.955002 -0.50477,0 -0.91775,-0.166733 -0.91775,-0.370516 0,-0.203784 0.31983,-0.370515 0.71073,-0.370515 0.3909,0 0.97107,0.09992 1.28929,0.22202 0.31822,0.122113 0.92396,0.780831 1.34606,1.463823 0.72521,1.173411 0.73448,1.305626 0.16815,2.400772 -0.34076,0.658953 -1.14307,1.386155 -1.85962,1.685555 -0.69316,0.289625 -1.47408,0.524131 -1.73534,0.52112 z m 9.68119,-3.329169 c -0.95703,0 -1.44913,-0.16694 -1.44913,-0.491603 0,-0.326913 0.34533,-0.440917 1.03081,-0.340312 0.7555,0.110882 1.29978,-0.117659 2.03784,-0.855722 0.55386,-0.553861 1.00702,-1.226536 1.00702,-1.494833 0,-0.268297 -0.18512,-0.894104 -0.41138,-1.39068 -0.22625,-0.496572 -0.81766,-1.08798 -1.31423,-1.314235 -0.49657,-0.226256 -1.29994,-0.411372 -1.78525,-0.411372 -0.48531,0 -1.15234,0.269945 -1.48228,0.599883 -0.32993,0.329932 -0.71108,0.488668 -0.84702,0.352741 -0.13597,-0.13592 -0.069,-0.530919 0.14865,-0.877766 0.21769,-0.346845 0.81362,-0.77963 1.32429,-0.961742 0.51069,-0.182111 1.39012,-0.215258 1.95431,-0.07366 0.56419,0.141598 1.50463,0.736287 2.08987,1.321527 0.76641,0.766411 1.06407,1.42685 1.06407,2.360944 0,0.854645 -0.3271,1.685607 -0.95922,2.436848 -0.77004,0.915139 -1.24505,1.139976 -2.40835,1.139976 z m -13.90243,-1.111545 c -0.48688,0 -1.2187,-0.333464 -1.62627,-0.741031 -0.40758,-0.407567 -0.74103,-0.907762 -0.74103,-1.111545 0,-0.203784 0.25009,-0.370515 0.55576,-0.370515 0.30568,0 0.55578,0.238863 0.55578,0.530803 0,0.291944 0.34147,0.639183 0.75881,0.771643 0.41735,0.132461 1.00091,0.03991 1.2968,-0.205659 0.2959,-0.245569 0.53799,-0.670309 0.53799,-0.943861 0,-0.273555 -0.29591,-0.655741 -0.6576,-0.849306 -0.36167,-0.193567 -0.69569,-0.81215 -0.74224,-1.374633 -0.0465,-0.562483 -0.36003,-1.327004 -0.69663,-1.69893 -0.42467,-0.469262 -1.13735,-0.676238 -2.32849,-0.676238 -1.33096,0 -1.98948,0.228867 -2.93175,1.018916 -0.91111,0.763942 -1.2675,1.412967 -1.42421,2.593606 -0.13905,1.048051 -0.0688,1.574689 0.2103,1.574689 0.23061,0 0.4193,0.166732 0.4193,0.370516 0,0.203783 -0.25423,0.370514 -0.56494,0.370514 -0.31073,0 -0.73256,-0.440847 -0.93741,-0.979657 -0.25522,-0.67124 -0.24521,-1.365288 0.0318,-2.204572 0.22234,-0.673701 0.96416,-1.716507 1.64848,-2.317345 0.68489,-0.601347 1.88975,-1.2015 2.68022,-1.335052 0.80134,-0.135388 1.91771,-0.05947 2.52588,0.171749 0.59942,0.227896 1.40114,0.748496 1.78162,1.156885 0.41958,0.450372 0.62615,1.085746 0.52502,1.614837 -0.11805,0.617598 0.0281,0.923273 0.5006,1.046832 0.36704,0.09598 0.78345,0.637071 0.92534,1.202418 0.20339,0.810387 0.0807,1.17148 -0.57995,1.706419 -0.46086,0.373183 -1.23629,0.678517 -1.72317,0.678517 z m -32.0008,-0.740989 c -0.15593,0 -0.38737,-0.649442 -0.5143,-1.443204 -0.18157,-1.135496 -0.66996,-1.844599 -2.29062,-3.325788 -1.2591,-1.15075 -2.64646,-2.040542 -3.56886,-2.288921 -1.13261,-0.304979 -1.40329,-0.512059 -1.08516,-0.830187 0.23312,-0.233121 1.21304,-0.390183 2.1776,-0.349026 0.96455,0.04116 2.67076,0.260902 3.79157,0.488321 1.1208,0.227422 2.97827,0.910311 4.1277,1.51753 1.14943,0.607223 2.54663,1.580788 3.10488,2.163479 0.61488,0.641799 0.92712,1.288455 0.79207,1.640393 -0.17348,0.452094 -0.55988,0.215398 -1.74209,-1.06714 -1.10332,-1.196964 -2.19644,-1.901398 -3.99349,-2.573501 -1.36088,-0.508977 -3.12008,-1.012048 -3.90933,-1.117937 l -1.43501,-0.192523 2.26535,2.050023 c 1.41021,1.276164 2.38437,2.493974 2.58066,3.226108 0.17342,0.646845 0.24044,1.3845 0.14893,1.63923 -0.0915,0.254729 -0.29396,0.463143 -0.4499,0.463143 z m 36.31715,-1.852576 c -0.17182,0 -0.48677,-0.500195 -0.69989,-1.111545 -0.2659,-0.762742 -0.26856,-1.452679 -0.008,-2.198643 0.20843,-0.597902 0.77746,-1.348194 1.26449,-1.667318 0.48705,-0.319121 1.29635,-0.580221 1.79847,-0.580221 0.52763,0 1.4714,0.526689 2.23613,1.247925 0.72776,0.686358 1.32318,1.570036 1.32318,1.963731 0,0.393691 -0.20007,0.915884 -0.44462,1.160424 -0.24453,0.24454 -0.59125,0.444618 -0.77047,0.444618 -0.17922,0 -0.2241,-0.463249 -0.0997,-1.02944 0.16446,-0.748751 0.0169,-1.253871 -0.54077,-1.852575 -0.44043,-0.472751 -1.20943,-0.823137 -1.80655,-0.823137 -0.57183,0 -1.31562,0.304908 -1.65289,0.677575 -0.33726,0.372669 -0.61319,1.206329 -0.61319,1.852576 0,0.64625 0.17657,1.175001 0.39238,1.175001 0.21581,0 0.28933,0.166731 0.16338,0.370515 -0.12589,0.203783 -0.36957,0.370514 -0.54138,0.370514 z"
       id="path839"
       inkscape:connector-curvature="0" />
  </g>
  <g
     inkscape:groupmode="layer"
     id="layer2"
     inkscape:label="Layer 2"
     transform="translate(-25.465916,-41.963453)" />
</svg>
